%TF.GenerationSoftware,KiCad,Pcbnew,(5.1.10)-1*%
%TF.CreationDate,2021-08-08T16:05:11+01:00*%
%TF.ProjectId,bongopad,626f6e67-6f70-4616-942e-6b696361645f,1*%
%TF.SameCoordinates,PXb71b00PYb71b00*%
%TF.FileFunction,Paste,Bot*%
%TF.FilePolarity,Positive*%
%FSLAX46Y46*%
G04 Gerber Fmt 4.6, Leading zero omitted, Abs format (unit mm)*
G04 Created by KiCad (PCBNEW (5.1.10)-1) date 2021-08-08 16:05:11*
%MOMM*%
%LPD*%
G01*
G04 APERTURE LIST*
%ADD10R,0.900000X1.200000*%
%ADD11R,1.800000X0.900000*%
%ADD12R,2.550000X2.500000*%
G04 APERTURE END LIST*
D10*
%TO.C,D20*%
X84000000Y-81200000D03*
X80700000Y-81200000D03*
%TD*%
%TO.C,D19*%
X67000000Y-81200000D03*
X63700000Y-81200000D03*
%TD*%
%TO.C,D18*%
X50000000Y-81200000D03*
X46700000Y-81200000D03*
%TD*%
%TO.C,D17*%
X33000000Y-81200000D03*
X29700000Y-81200000D03*
%TD*%
%TO.C,D16*%
X84000000Y-64200000D03*
X80700000Y-64200000D03*
%TD*%
%TO.C,D15*%
X67000000Y-64200000D03*
X63700000Y-64200000D03*
%TD*%
%TO.C,D14*%
X50000000Y-64200000D03*
X46700000Y-64200000D03*
%TD*%
%TO.C,D13*%
X33000000Y-64200000D03*
X29700000Y-64200000D03*
%TD*%
%TO.C,D12*%
X84000000Y-47200000D03*
X80700000Y-47200000D03*
%TD*%
%TO.C,D11*%
X67000000Y-47200000D03*
X63700000Y-47200000D03*
%TD*%
%TO.C,D10*%
X50000000Y-47200000D03*
X46700000Y-47200000D03*
%TD*%
%TO.C,D9*%
X33000000Y-47200000D03*
X29700000Y-47200000D03*
%TD*%
%TO.C,D8*%
X84000000Y-30200000D03*
X80700000Y-30200000D03*
%TD*%
%TO.C,D7*%
X67000000Y-30200000D03*
X63700000Y-30200000D03*
%TD*%
%TO.C,D6*%
X50000000Y-30200000D03*
X46700000Y-30200000D03*
%TD*%
%TO.C,D5*%
X33000000Y-30200000D03*
X29700000Y-30200000D03*
%TD*%
%TO.C,D4*%
X84000000Y-13200000D03*
X80700000Y-13200000D03*
%TD*%
%TO.C,D3*%
X67000000Y-13200000D03*
X63700000Y-13200000D03*
%TD*%
%TO.C,D2*%
X50000000Y-13200000D03*
X46700000Y-13200000D03*
%TD*%
%TO.C,D1*%
X33000000Y-13200000D03*
X29700000Y-13200000D03*
%TD*%
D11*
%TO.C,K1*%
X33435000Y-15115000D03*
X33435000Y-16615000D03*
X28235000Y-16615000D03*
X28235000Y-15115000D03*
D12*
X36850000Y-5735000D03*
X23425000Y-8275000D03*
%TD*%
D11*
%TO.C,K2*%
X52500000Y-15120000D03*
X52500000Y-16620000D03*
X47300000Y-16620000D03*
X47300000Y-15120000D03*
D12*
X55915000Y-5740000D03*
X42490000Y-8280000D03*
%TD*%
D11*
%TO.C,K6*%
X55950000Y-40500000D03*
X55950000Y-42000000D03*
X50750000Y-42000000D03*
X50750000Y-40500000D03*
D12*
X59365000Y-31120000D03*
X45940000Y-33660000D03*
%TD*%
D11*
%TO.C,K8*%
X89950000Y-40500000D03*
X89950000Y-42000000D03*
X84750000Y-42000000D03*
X84750000Y-40500000D03*
D12*
X93365000Y-31120000D03*
X79940000Y-33660000D03*
%TD*%
D11*
%TO.C,K10*%
X55950000Y-57500000D03*
X55950000Y-59000000D03*
X50750000Y-59000000D03*
X50750000Y-57500000D03*
D12*
X59365000Y-48120000D03*
X45940000Y-50660000D03*
%TD*%
D11*
%TO.C,K3*%
X72950000Y-23500000D03*
X72950000Y-25000000D03*
X67750000Y-25000000D03*
X67750000Y-23500000D03*
D12*
X76365000Y-14120000D03*
X62940000Y-16660000D03*
%TD*%
D11*
%TO.C,K4*%
X89950000Y-23500000D03*
X89950000Y-25000000D03*
X84750000Y-25000000D03*
X84750000Y-23500000D03*
D12*
X93365000Y-14120000D03*
X79940000Y-16660000D03*
%TD*%
D11*
%TO.C,K5*%
X38950000Y-40500000D03*
X38950000Y-42000000D03*
X33750000Y-42000000D03*
X33750000Y-40500000D03*
D12*
X42365000Y-31120000D03*
X28940000Y-33660000D03*
%TD*%
D11*
%TO.C,K7*%
X72950000Y-40500000D03*
X72950000Y-42000000D03*
X67750000Y-42000000D03*
X67750000Y-40500000D03*
D12*
X76365000Y-31120000D03*
X62940000Y-33660000D03*
%TD*%
D11*
%TO.C,K9*%
X38950000Y-57500000D03*
X38950000Y-59000000D03*
X33750000Y-59000000D03*
X33750000Y-57500000D03*
D12*
X42365000Y-48120000D03*
X28940000Y-50660000D03*
%TD*%
D11*
%TO.C,K13*%
X38950000Y-74500000D03*
X38950000Y-76000000D03*
X33750000Y-76000000D03*
X33750000Y-74500000D03*
D12*
X42365000Y-65120000D03*
X28940000Y-67660000D03*
%TD*%
D11*
%TO.C,K14*%
X55950000Y-74500000D03*
X55950000Y-76000000D03*
X50750000Y-76000000D03*
X50750000Y-74500000D03*
D12*
X59365000Y-65120000D03*
X45940000Y-67660000D03*
%TD*%
D11*
%TO.C,K15*%
X72950000Y-74500000D03*
X72950000Y-76000000D03*
X67750000Y-76000000D03*
X67750000Y-74500000D03*
D12*
X76365000Y-65120000D03*
X62940000Y-67660000D03*
%TD*%
D11*
%TO.C,K17*%
X38950000Y-91500000D03*
X38950000Y-93000000D03*
X33750000Y-93000000D03*
X33750000Y-91500000D03*
D12*
X42365000Y-82120000D03*
X28940000Y-84660000D03*
%TD*%
D11*
%TO.C,K18*%
X55950000Y-91500000D03*
X55950000Y-93000000D03*
X50750000Y-93000000D03*
X50750000Y-91500000D03*
D12*
X59365000Y-82120000D03*
X45940000Y-84660000D03*
%TD*%
D11*
%TO.C,K19*%
X72950000Y-91500000D03*
X72950000Y-93000000D03*
X67750000Y-93000000D03*
X67750000Y-91500000D03*
D12*
X76365000Y-82120000D03*
X62940000Y-84660000D03*
%TD*%
D11*
%TO.C,K20*%
X89950000Y-91500000D03*
X89950000Y-93000000D03*
X84750000Y-93000000D03*
X84750000Y-91500000D03*
D12*
X93365000Y-82120000D03*
X79940000Y-84660000D03*
%TD*%
D11*
%TO.C,K12*%
X89950000Y-57500000D03*
X89950000Y-59000000D03*
X84750000Y-59000000D03*
X84750000Y-57500000D03*
D12*
X93365000Y-48120000D03*
X79940000Y-50660000D03*
%TD*%
D11*
%TO.C,K11*%
X72950000Y-57500000D03*
X72950000Y-59000000D03*
X67750000Y-59000000D03*
X67750000Y-57500000D03*
D12*
X76365000Y-48120000D03*
X62940000Y-50660000D03*
%TD*%
D11*
%TO.C,K16*%
X89950000Y-74500000D03*
X89950000Y-76000000D03*
X84750000Y-76000000D03*
X84750000Y-74500000D03*
D12*
X93365000Y-65120000D03*
X79940000Y-67660000D03*
%TD*%
M02*
