%TF.GenerationSoftware,KiCad,Pcbnew,(5.1.10)-1*%
%TF.CreationDate,2021-08-08T16:05:11+01:00*%
%TF.ProjectId,bongopad,626f6e67-6f70-4616-942e-6b696361645f,1*%
%TF.SameCoordinates,PXb71b00PYb71b00*%
%TF.FileFunction,Legend,Bot*%
%TF.FilePolarity,Positive*%
%FSLAX46Y46*%
G04 Gerber Fmt 4.6, Leading zero omitted, Abs format (unit mm)*
G04 Created by KiCad (PCBNEW (5.1.10)-1) date 2021-08-08 16:05:11*
%MOMM*%
%LPD*%
G01*
G04 APERTURE LIST*
%ADD10C,0.120000*%
%ADD11C,0.150000*%
G04 APERTURE END LIST*
D10*
%TO.C,D20*%
X80100000Y-82200000D02*
X80100000Y-80200000D01*
X80100000Y-80200000D02*
X84000000Y-80200000D01*
X80100000Y-82200000D02*
X84000000Y-82200000D01*
%TO.C,D19*%
X63100000Y-82200000D02*
X63100000Y-80200000D01*
X63100000Y-80200000D02*
X67000000Y-80200000D01*
X63100000Y-82200000D02*
X67000000Y-82200000D01*
%TO.C,D18*%
X46100000Y-82200000D02*
X46100000Y-80200000D01*
X46100000Y-80200000D02*
X50000000Y-80200000D01*
X46100000Y-82200000D02*
X50000000Y-82200000D01*
%TO.C,D17*%
X29100000Y-82200000D02*
X29100000Y-80200000D01*
X29100000Y-80200000D02*
X33000000Y-80200000D01*
X29100000Y-82200000D02*
X33000000Y-82200000D01*
%TO.C,D16*%
X80100000Y-65200000D02*
X80100000Y-63200000D01*
X80100000Y-63200000D02*
X84000000Y-63200000D01*
X80100000Y-65200000D02*
X84000000Y-65200000D01*
%TO.C,D15*%
X63100000Y-65200000D02*
X63100000Y-63200000D01*
X63100000Y-63200000D02*
X67000000Y-63200000D01*
X63100000Y-65200000D02*
X67000000Y-65200000D01*
%TO.C,D14*%
X46100000Y-65200000D02*
X46100000Y-63200000D01*
X46100000Y-63200000D02*
X50000000Y-63200000D01*
X46100000Y-65200000D02*
X50000000Y-65200000D01*
%TO.C,D13*%
X29100000Y-65200000D02*
X29100000Y-63200000D01*
X29100000Y-63200000D02*
X33000000Y-63200000D01*
X29100000Y-65200000D02*
X33000000Y-65200000D01*
%TO.C,D12*%
X80100000Y-48200000D02*
X80100000Y-46200000D01*
X80100000Y-46200000D02*
X84000000Y-46200000D01*
X80100000Y-48200000D02*
X84000000Y-48200000D01*
%TO.C,D11*%
X63100000Y-48200000D02*
X63100000Y-46200000D01*
X63100000Y-46200000D02*
X67000000Y-46200000D01*
X63100000Y-48200000D02*
X67000000Y-48200000D01*
%TO.C,D10*%
X46100000Y-48200000D02*
X46100000Y-46200000D01*
X46100000Y-46200000D02*
X50000000Y-46200000D01*
X46100000Y-48200000D02*
X50000000Y-48200000D01*
%TO.C,D9*%
X29100000Y-48200000D02*
X29100000Y-46200000D01*
X29100000Y-46200000D02*
X33000000Y-46200000D01*
X29100000Y-48200000D02*
X33000000Y-48200000D01*
%TO.C,D8*%
X80100000Y-31200000D02*
X80100000Y-29200000D01*
X80100000Y-29200000D02*
X84000000Y-29200000D01*
X80100000Y-31200000D02*
X84000000Y-31200000D01*
%TO.C,D7*%
X63100000Y-31200000D02*
X63100000Y-29200000D01*
X63100000Y-29200000D02*
X67000000Y-29200000D01*
X63100000Y-31200000D02*
X67000000Y-31200000D01*
%TO.C,D6*%
X46100000Y-31200000D02*
X46100000Y-29200000D01*
X46100000Y-29200000D02*
X50000000Y-29200000D01*
X46100000Y-31200000D02*
X50000000Y-31200000D01*
%TO.C,D5*%
X29100000Y-31200000D02*
X29100000Y-29200000D01*
X29100000Y-29200000D02*
X33000000Y-29200000D01*
X29100000Y-31200000D02*
X33000000Y-31200000D01*
%TO.C,D4*%
X80100000Y-14200000D02*
X80100000Y-12200000D01*
X80100000Y-12200000D02*
X84000000Y-12200000D01*
X80100000Y-14200000D02*
X84000000Y-14200000D01*
%TO.C,D3*%
X63100000Y-14200000D02*
X63100000Y-12200000D01*
X63100000Y-12200000D02*
X67000000Y-12200000D01*
X63100000Y-14200000D02*
X67000000Y-14200000D01*
%TO.C,D2*%
X46100000Y-14200000D02*
X46100000Y-12200000D01*
X46100000Y-12200000D02*
X50000000Y-12200000D01*
X46100000Y-14200000D02*
X50000000Y-14200000D01*
%TO.C,D1*%
X29100000Y-14200000D02*
X29100000Y-12200000D01*
X29100000Y-12200000D02*
X33000000Y-12200000D01*
X29100000Y-14200000D02*
X33000000Y-14200000D01*
%TO.C,K1*%
X29135000Y-14065000D02*
X28835000Y-14065000D01*
X28835000Y-14065000D02*
X28835000Y-14365000D01*
%TO.C,K2*%
X48200000Y-14070000D02*
X47900000Y-14070000D01*
X47900000Y-14070000D02*
X47900000Y-14370000D01*
%TO.C,K6*%
X51650000Y-39450000D02*
X51350000Y-39450000D01*
X51350000Y-39450000D02*
X51350000Y-39750000D01*
%TO.C,K8*%
X85650000Y-39450000D02*
X85350000Y-39450000D01*
X85350000Y-39450000D02*
X85350000Y-39750000D01*
%TO.C,K10*%
X51650000Y-56450000D02*
X51350000Y-56450000D01*
X51350000Y-56450000D02*
X51350000Y-56750000D01*
%TO.C,K3*%
X68650000Y-22450000D02*
X68350000Y-22450000D01*
X68350000Y-22450000D02*
X68350000Y-22750000D01*
%TO.C,K4*%
X85650000Y-22450000D02*
X85350000Y-22450000D01*
X85350000Y-22450000D02*
X85350000Y-22750000D01*
%TO.C,K5*%
X34650000Y-39450000D02*
X34350000Y-39450000D01*
X34350000Y-39450000D02*
X34350000Y-39750000D01*
%TO.C,K7*%
X68650000Y-39450000D02*
X68350000Y-39450000D01*
X68350000Y-39450000D02*
X68350000Y-39750000D01*
%TO.C,K9*%
X34650000Y-56450000D02*
X34350000Y-56450000D01*
X34350000Y-56450000D02*
X34350000Y-56750000D01*
%TO.C,K13*%
X34650000Y-73450000D02*
X34350000Y-73450000D01*
X34350000Y-73450000D02*
X34350000Y-73750000D01*
%TO.C,K14*%
X51650000Y-73450000D02*
X51350000Y-73450000D01*
X51350000Y-73450000D02*
X51350000Y-73750000D01*
%TO.C,K15*%
X68650000Y-73450000D02*
X68350000Y-73450000D01*
X68350000Y-73450000D02*
X68350000Y-73750000D01*
%TO.C,K17*%
X34650000Y-90450000D02*
X34350000Y-90450000D01*
X34350000Y-90450000D02*
X34350000Y-90750000D01*
%TO.C,K18*%
X51650000Y-90450000D02*
X51350000Y-90450000D01*
X51350000Y-90450000D02*
X51350000Y-90750000D01*
%TO.C,K19*%
X68650000Y-90450000D02*
X68350000Y-90450000D01*
X68350000Y-90450000D02*
X68350000Y-90750000D01*
%TO.C,K20*%
X85650000Y-90450000D02*
X85350000Y-90450000D01*
X85350000Y-90450000D02*
X85350000Y-90750000D01*
%TO.C,K12*%
X85650000Y-56450000D02*
X85350000Y-56450000D01*
X85350000Y-56450000D02*
X85350000Y-56750000D01*
%TO.C,K11*%
X68650000Y-56450000D02*
X68350000Y-56450000D01*
X68350000Y-56450000D02*
X68350000Y-56750000D01*
%TO.C,K16*%
X85650000Y-73450000D02*
X85350000Y-73450000D01*
X85350000Y-73450000D02*
X85350000Y-73750000D01*
%TO.C,D20*%
D11*
X87564285Y-81652380D02*
X87564285Y-80652380D01*
X87326190Y-80652380D01*
X87183333Y-80700000D01*
X87088095Y-80795238D01*
X87040476Y-80890476D01*
X86992857Y-81080952D01*
X86992857Y-81223809D01*
X87040476Y-81414285D01*
X87088095Y-81509523D01*
X87183333Y-81604761D01*
X87326190Y-81652380D01*
X87564285Y-81652380D01*
X86611904Y-80747619D02*
X86564285Y-80700000D01*
X86469047Y-80652380D01*
X86230952Y-80652380D01*
X86135714Y-80700000D01*
X86088095Y-80747619D01*
X86040476Y-80842857D01*
X86040476Y-80938095D01*
X86088095Y-81080952D01*
X86659523Y-81652380D01*
X86040476Y-81652380D01*
X85421428Y-80652380D02*
X85326190Y-80652380D01*
X85230952Y-80700000D01*
X85183333Y-80747619D01*
X85135714Y-80842857D01*
X85088095Y-81033333D01*
X85088095Y-81271428D01*
X85135714Y-81461904D01*
X85183333Y-81557142D01*
X85230952Y-81604761D01*
X85326190Y-81652380D01*
X85421428Y-81652380D01*
X85516666Y-81604761D01*
X85564285Y-81557142D01*
X85611904Y-81461904D01*
X85659523Y-81271428D01*
X85659523Y-81033333D01*
X85611904Y-80842857D01*
X85564285Y-80747619D01*
X85516666Y-80700000D01*
X85421428Y-80652380D01*
%TO.C,D19*%
X70564285Y-81652380D02*
X70564285Y-80652380D01*
X70326190Y-80652380D01*
X70183333Y-80700000D01*
X70088095Y-80795238D01*
X70040476Y-80890476D01*
X69992857Y-81080952D01*
X69992857Y-81223809D01*
X70040476Y-81414285D01*
X70088095Y-81509523D01*
X70183333Y-81604761D01*
X70326190Y-81652380D01*
X70564285Y-81652380D01*
X69040476Y-81652380D02*
X69611904Y-81652380D01*
X69326190Y-81652380D02*
X69326190Y-80652380D01*
X69421428Y-80795238D01*
X69516666Y-80890476D01*
X69611904Y-80938095D01*
X68564285Y-81652380D02*
X68373809Y-81652380D01*
X68278571Y-81604761D01*
X68230952Y-81557142D01*
X68135714Y-81414285D01*
X68088095Y-81223809D01*
X68088095Y-80842857D01*
X68135714Y-80747619D01*
X68183333Y-80700000D01*
X68278571Y-80652380D01*
X68469047Y-80652380D01*
X68564285Y-80700000D01*
X68611904Y-80747619D01*
X68659523Y-80842857D01*
X68659523Y-81080952D01*
X68611904Y-81176190D01*
X68564285Y-81223809D01*
X68469047Y-81271428D01*
X68278571Y-81271428D01*
X68183333Y-81223809D01*
X68135714Y-81176190D01*
X68088095Y-81080952D01*
%TO.C,D18*%
X53564285Y-81652380D02*
X53564285Y-80652380D01*
X53326190Y-80652380D01*
X53183333Y-80700000D01*
X53088095Y-80795238D01*
X53040476Y-80890476D01*
X52992857Y-81080952D01*
X52992857Y-81223809D01*
X53040476Y-81414285D01*
X53088095Y-81509523D01*
X53183333Y-81604761D01*
X53326190Y-81652380D01*
X53564285Y-81652380D01*
X52040476Y-81652380D02*
X52611904Y-81652380D01*
X52326190Y-81652380D02*
X52326190Y-80652380D01*
X52421428Y-80795238D01*
X52516666Y-80890476D01*
X52611904Y-80938095D01*
X51469047Y-81080952D02*
X51564285Y-81033333D01*
X51611904Y-80985714D01*
X51659523Y-80890476D01*
X51659523Y-80842857D01*
X51611904Y-80747619D01*
X51564285Y-80700000D01*
X51469047Y-80652380D01*
X51278571Y-80652380D01*
X51183333Y-80700000D01*
X51135714Y-80747619D01*
X51088095Y-80842857D01*
X51088095Y-80890476D01*
X51135714Y-80985714D01*
X51183333Y-81033333D01*
X51278571Y-81080952D01*
X51469047Y-81080952D01*
X51564285Y-81128571D01*
X51611904Y-81176190D01*
X51659523Y-81271428D01*
X51659523Y-81461904D01*
X51611904Y-81557142D01*
X51564285Y-81604761D01*
X51469047Y-81652380D01*
X51278571Y-81652380D01*
X51183333Y-81604761D01*
X51135714Y-81557142D01*
X51088095Y-81461904D01*
X51088095Y-81271428D01*
X51135714Y-81176190D01*
X51183333Y-81128571D01*
X51278571Y-81080952D01*
%TO.C,D17*%
X36564285Y-81652380D02*
X36564285Y-80652380D01*
X36326190Y-80652380D01*
X36183333Y-80700000D01*
X36088095Y-80795238D01*
X36040476Y-80890476D01*
X35992857Y-81080952D01*
X35992857Y-81223809D01*
X36040476Y-81414285D01*
X36088095Y-81509523D01*
X36183333Y-81604761D01*
X36326190Y-81652380D01*
X36564285Y-81652380D01*
X35040476Y-81652380D02*
X35611904Y-81652380D01*
X35326190Y-81652380D02*
X35326190Y-80652380D01*
X35421428Y-80795238D01*
X35516666Y-80890476D01*
X35611904Y-80938095D01*
X34707142Y-80652380D02*
X34040476Y-80652380D01*
X34469047Y-81652380D01*
%TO.C,D16*%
X87564285Y-64652380D02*
X87564285Y-63652380D01*
X87326190Y-63652380D01*
X87183333Y-63700000D01*
X87088095Y-63795238D01*
X87040476Y-63890476D01*
X86992857Y-64080952D01*
X86992857Y-64223809D01*
X87040476Y-64414285D01*
X87088095Y-64509523D01*
X87183333Y-64604761D01*
X87326190Y-64652380D01*
X87564285Y-64652380D01*
X86040476Y-64652380D02*
X86611904Y-64652380D01*
X86326190Y-64652380D02*
X86326190Y-63652380D01*
X86421428Y-63795238D01*
X86516666Y-63890476D01*
X86611904Y-63938095D01*
X85183333Y-63652380D02*
X85373809Y-63652380D01*
X85469047Y-63700000D01*
X85516666Y-63747619D01*
X85611904Y-63890476D01*
X85659523Y-64080952D01*
X85659523Y-64461904D01*
X85611904Y-64557142D01*
X85564285Y-64604761D01*
X85469047Y-64652380D01*
X85278571Y-64652380D01*
X85183333Y-64604761D01*
X85135714Y-64557142D01*
X85088095Y-64461904D01*
X85088095Y-64223809D01*
X85135714Y-64128571D01*
X85183333Y-64080952D01*
X85278571Y-64033333D01*
X85469047Y-64033333D01*
X85564285Y-64080952D01*
X85611904Y-64128571D01*
X85659523Y-64223809D01*
%TO.C,D15*%
X70564285Y-64652380D02*
X70564285Y-63652380D01*
X70326190Y-63652380D01*
X70183333Y-63700000D01*
X70088095Y-63795238D01*
X70040476Y-63890476D01*
X69992857Y-64080952D01*
X69992857Y-64223809D01*
X70040476Y-64414285D01*
X70088095Y-64509523D01*
X70183333Y-64604761D01*
X70326190Y-64652380D01*
X70564285Y-64652380D01*
X69040476Y-64652380D02*
X69611904Y-64652380D01*
X69326190Y-64652380D02*
X69326190Y-63652380D01*
X69421428Y-63795238D01*
X69516666Y-63890476D01*
X69611904Y-63938095D01*
X68135714Y-63652380D02*
X68611904Y-63652380D01*
X68659523Y-64128571D01*
X68611904Y-64080952D01*
X68516666Y-64033333D01*
X68278571Y-64033333D01*
X68183333Y-64080952D01*
X68135714Y-64128571D01*
X68088095Y-64223809D01*
X68088095Y-64461904D01*
X68135714Y-64557142D01*
X68183333Y-64604761D01*
X68278571Y-64652380D01*
X68516666Y-64652380D01*
X68611904Y-64604761D01*
X68659523Y-64557142D01*
%TO.C,D14*%
X53564285Y-64652380D02*
X53564285Y-63652380D01*
X53326190Y-63652380D01*
X53183333Y-63700000D01*
X53088095Y-63795238D01*
X53040476Y-63890476D01*
X52992857Y-64080952D01*
X52992857Y-64223809D01*
X53040476Y-64414285D01*
X53088095Y-64509523D01*
X53183333Y-64604761D01*
X53326190Y-64652380D01*
X53564285Y-64652380D01*
X52040476Y-64652380D02*
X52611904Y-64652380D01*
X52326190Y-64652380D02*
X52326190Y-63652380D01*
X52421428Y-63795238D01*
X52516666Y-63890476D01*
X52611904Y-63938095D01*
X51183333Y-63985714D02*
X51183333Y-64652380D01*
X51421428Y-63604761D02*
X51659523Y-64319047D01*
X51040476Y-64319047D01*
%TO.C,D13*%
X36564285Y-64652380D02*
X36564285Y-63652380D01*
X36326190Y-63652380D01*
X36183333Y-63700000D01*
X36088095Y-63795238D01*
X36040476Y-63890476D01*
X35992857Y-64080952D01*
X35992857Y-64223809D01*
X36040476Y-64414285D01*
X36088095Y-64509523D01*
X36183333Y-64604761D01*
X36326190Y-64652380D01*
X36564285Y-64652380D01*
X35040476Y-64652380D02*
X35611904Y-64652380D01*
X35326190Y-64652380D02*
X35326190Y-63652380D01*
X35421428Y-63795238D01*
X35516666Y-63890476D01*
X35611904Y-63938095D01*
X34707142Y-63652380D02*
X34088095Y-63652380D01*
X34421428Y-64033333D01*
X34278571Y-64033333D01*
X34183333Y-64080952D01*
X34135714Y-64128571D01*
X34088095Y-64223809D01*
X34088095Y-64461904D01*
X34135714Y-64557142D01*
X34183333Y-64604761D01*
X34278571Y-64652380D01*
X34564285Y-64652380D01*
X34659523Y-64604761D01*
X34707142Y-64557142D01*
%TO.C,D12*%
X87564285Y-47652380D02*
X87564285Y-46652380D01*
X87326190Y-46652380D01*
X87183333Y-46700000D01*
X87088095Y-46795238D01*
X87040476Y-46890476D01*
X86992857Y-47080952D01*
X86992857Y-47223809D01*
X87040476Y-47414285D01*
X87088095Y-47509523D01*
X87183333Y-47604761D01*
X87326190Y-47652380D01*
X87564285Y-47652380D01*
X86040476Y-47652380D02*
X86611904Y-47652380D01*
X86326190Y-47652380D02*
X86326190Y-46652380D01*
X86421428Y-46795238D01*
X86516666Y-46890476D01*
X86611904Y-46938095D01*
X85659523Y-46747619D02*
X85611904Y-46700000D01*
X85516666Y-46652380D01*
X85278571Y-46652380D01*
X85183333Y-46700000D01*
X85135714Y-46747619D01*
X85088095Y-46842857D01*
X85088095Y-46938095D01*
X85135714Y-47080952D01*
X85707142Y-47652380D01*
X85088095Y-47652380D01*
%TO.C,D11*%
X70564285Y-47652380D02*
X70564285Y-46652380D01*
X70326190Y-46652380D01*
X70183333Y-46700000D01*
X70088095Y-46795238D01*
X70040476Y-46890476D01*
X69992857Y-47080952D01*
X69992857Y-47223809D01*
X70040476Y-47414285D01*
X70088095Y-47509523D01*
X70183333Y-47604761D01*
X70326190Y-47652380D01*
X70564285Y-47652380D01*
X69040476Y-47652380D02*
X69611904Y-47652380D01*
X69326190Y-47652380D02*
X69326190Y-46652380D01*
X69421428Y-46795238D01*
X69516666Y-46890476D01*
X69611904Y-46938095D01*
X68088095Y-47652380D02*
X68659523Y-47652380D01*
X68373809Y-47652380D02*
X68373809Y-46652380D01*
X68469047Y-46795238D01*
X68564285Y-46890476D01*
X68659523Y-46938095D01*
%TO.C,D10*%
X53564285Y-47652380D02*
X53564285Y-46652380D01*
X53326190Y-46652380D01*
X53183333Y-46700000D01*
X53088095Y-46795238D01*
X53040476Y-46890476D01*
X52992857Y-47080952D01*
X52992857Y-47223809D01*
X53040476Y-47414285D01*
X53088095Y-47509523D01*
X53183333Y-47604761D01*
X53326190Y-47652380D01*
X53564285Y-47652380D01*
X52040476Y-47652380D02*
X52611904Y-47652380D01*
X52326190Y-47652380D02*
X52326190Y-46652380D01*
X52421428Y-46795238D01*
X52516666Y-46890476D01*
X52611904Y-46938095D01*
X51421428Y-46652380D02*
X51326190Y-46652380D01*
X51230952Y-46700000D01*
X51183333Y-46747619D01*
X51135714Y-46842857D01*
X51088095Y-47033333D01*
X51088095Y-47271428D01*
X51135714Y-47461904D01*
X51183333Y-47557142D01*
X51230952Y-47604761D01*
X51326190Y-47652380D01*
X51421428Y-47652380D01*
X51516666Y-47604761D01*
X51564285Y-47557142D01*
X51611904Y-47461904D01*
X51659523Y-47271428D01*
X51659523Y-47033333D01*
X51611904Y-46842857D01*
X51564285Y-46747619D01*
X51516666Y-46700000D01*
X51421428Y-46652380D01*
%TO.C,D9*%
X36088095Y-47652380D02*
X36088095Y-46652380D01*
X35850000Y-46652380D01*
X35707142Y-46700000D01*
X35611904Y-46795238D01*
X35564285Y-46890476D01*
X35516666Y-47080952D01*
X35516666Y-47223809D01*
X35564285Y-47414285D01*
X35611904Y-47509523D01*
X35707142Y-47604761D01*
X35850000Y-47652380D01*
X36088095Y-47652380D01*
X35040476Y-47652380D02*
X34850000Y-47652380D01*
X34754761Y-47604761D01*
X34707142Y-47557142D01*
X34611904Y-47414285D01*
X34564285Y-47223809D01*
X34564285Y-46842857D01*
X34611904Y-46747619D01*
X34659523Y-46700000D01*
X34754761Y-46652380D01*
X34945238Y-46652380D01*
X35040476Y-46700000D01*
X35088095Y-46747619D01*
X35135714Y-46842857D01*
X35135714Y-47080952D01*
X35088095Y-47176190D01*
X35040476Y-47223809D01*
X34945238Y-47271428D01*
X34754761Y-47271428D01*
X34659523Y-47223809D01*
X34611904Y-47176190D01*
X34564285Y-47080952D01*
%TO.C,D8*%
X87088095Y-30652380D02*
X87088095Y-29652380D01*
X86850000Y-29652380D01*
X86707142Y-29700000D01*
X86611904Y-29795238D01*
X86564285Y-29890476D01*
X86516666Y-30080952D01*
X86516666Y-30223809D01*
X86564285Y-30414285D01*
X86611904Y-30509523D01*
X86707142Y-30604761D01*
X86850000Y-30652380D01*
X87088095Y-30652380D01*
X85945238Y-30080952D02*
X86040476Y-30033333D01*
X86088095Y-29985714D01*
X86135714Y-29890476D01*
X86135714Y-29842857D01*
X86088095Y-29747619D01*
X86040476Y-29700000D01*
X85945238Y-29652380D01*
X85754761Y-29652380D01*
X85659523Y-29700000D01*
X85611904Y-29747619D01*
X85564285Y-29842857D01*
X85564285Y-29890476D01*
X85611904Y-29985714D01*
X85659523Y-30033333D01*
X85754761Y-30080952D01*
X85945238Y-30080952D01*
X86040476Y-30128571D01*
X86088095Y-30176190D01*
X86135714Y-30271428D01*
X86135714Y-30461904D01*
X86088095Y-30557142D01*
X86040476Y-30604761D01*
X85945238Y-30652380D01*
X85754761Y-30652380D01*
X85659523Y-30604761D01*
X85611904Y-30557142D01*
X85564285Y-30461904D01*
X85564285Y-30271428D01*
X85611904Y-30176190D01*
X85659523Y-30128571D01*
X85754761Y-30080952D01*
%TO.C,D7*%
X70088095Y-30652380D02*
X70088095Y-29652380D01*
X69850000Y-29652380D01*
X69707142Y-29700000D01*
X69611904Y-29795238D01*
X69564285Y-29890476D01*
X69516666Y-30080952D01*
X69516666Y-30223809D01*
X69564285Y-30414285D01*
X69611904Y-30509523D01*
X69707142Y-30604761D01*
X69850000Y-30652380D01*
X70088095Y-30652380D01*
X69183333Y-29652380D02*
X68516666Y-29652380D01*
X68945238Y-30652380D01*
%TO.C,D6*%
X53088095Y-30652380D02*
X53088095Y-29652380D01*
X52850000Y-29652380D01*
X52707142Y-29700000D01*
X52611904Y-29795238D01*
X52564285Y-29890476D01*
X52516666Y-30080952D01*
X52516666Y-30223809D01*
X52564285Y-30414285D01*
X52611904Y-30509523D01*
X52707142Y-30604761D01*
X52850000Y-30652380D01*
X53088095Y-30652380D01*
X51659523Y-29652380D02*
X51850000Y-29652380D01*
X51945238Y-29700000D01*
X51992857Y-29747619D01*
X52088095Y-29890476D01*
X52135714Y-30080952D01*
X52135714Y-30461904D01*
X52088095Y-30557142D01*
X52040476Y-30604761D01*
X51945238Y-30652380D01*
X51754761Y-30652380D01*
X51659523Y-30604761D01*
X51611904Y-30557142D01*
X51564285Y-30461904D01*
X51564285Y-30223809D01*
X51611904Y-30128571D01*
X51659523Y-30080952D01*
X51754761Y-30033333D01*
X51945238Y-30033333D01*
X52040476Y-30080952D01*
X52088095Y-30128571D01*
X52135714Y-30223809D01*
%TO.C,D5*%
X36088095Y-30652380D02*
X36088095Y-29652380D01*
X35850000Y-29652380D01*
X35707142Y-29700000D01*
X35611904Y-29795238D01*
X35564285Y-29890476D01*
X35516666Y-30080952D01*
X35516666Y-30223809D01*
X35564285Y-30414285D01*
X35611904Y-30509523D01*
X35707142Y-30604761D01*
X35850000Y-30652380D01*
X36088095Y-30652380D01*
X34611904Y-29652380D02*
X35088095Y-29652380D01*
X35135714Y-30128571D01*
X35088095Y-30080952D01*
X34992857Y-30033333D01*
X34754761Y-30033333D01*
X34659523Y-30080952D01*
X34611904Y-30128571D01*
X34564285Y-30223809D01*
X34564285Y-30461904D01*
X34611904Y-30557142D01*
X34659523Y-30604761D01*
X34754761Y-30652380D01*
X34992857Y-30652380D01*
X35088095Y-30604761D01*
X35135714Y-30557142D01*
%TO.C,D4*%
X87088095Y-13652380D02*
X87088095Y-12652380D01*
X86850000Y-12652380D01*
X86707142Y-12700000D01*
X86611904Y-12795238D01*
X86564285Y-12890476D01*
X86516666Y-13080952D01*
X86516666Y-13223809D01*
X86564285Y-13414285D01*
X86611904Y-13509523D01*
X86707142Y-13604761D01*
X86850000Y-13652380D01*
X87088095Y-13652380D01*
X85659523Y-12985714D02*
X85659523Y-13652380D01*
X85897619Y-12604761D02*
X86135714Y-13319047D01*
X85516666Y-13319047D01*
%TO.C,D3*%
X70088095Y-13652380D02*
X70088095Y-12652380D01*
X69850000Y-12652380D01*
X69707142Y-12700000D01*
X69611904Y-12795238D01*
X69564285Y-12890476D01*
X69516666Y-13080952D01*
X69516666Y-13223809D01*
X69564285Y-13414285D01*
X69611904Y-13509523D01*
X69707142Y-13604761D01*
X69850000Y-13652380D01*
X70088095Y-13652380D01*
X69183333Y-12652380D02*
X68564285Y-12652380D01*
X68897619Y-13033333D01*
X68754761Y-13033333D01*
X68659523Y-13080952D01*
X68611904Y-13128571D01*
X68564285Y-13223809D01*
X68564285Y-13461904D01*
X68611904Y-13557142D01*
X68659523Y-13604761D01*
X68754761Y-13652380D01*
X69040476Y-13652380D01*
X69135714Y-13604761D01*
X69183333Y-13557142D01*
%TO.C,D2*%
X53088095Y-13652380D02*
X53088095Y-12652380D01*
X52850000Y-12652380D01*
X52707142Y-12700000D01*
X52611904Y-12795238D01*
X52564285Y-12890476D01*
X52516666Y-13080952D01*
X52516666Y-13223809D01*
X52564285Y-13414285D01*
X52611904Y-13509523D01*
X52707142Y-13604761D01*
X52850000Y-13652380D01*
X53088095Y-13652380D01*
X52135714Y-12747619D02*
X52088095Y-12700000D01*
X51992857Y-12652380D01*
X51754761Y-12652380D01*
X51659523Y-12700000D01*
X51611904Y-12747619D01*
X51564285Y-12842857D01*
X51564285Y-12938095D01*
X51611904Y-13080952D01*
X52183333Y-13652380D01*
X51564285Y-13652380D01*
%TO.C,D1*%
X36088095Y-13652380D02*
X36088095Y-12652380D01*
X35850000Y-12652380D01*
X35707142Y-12700000D01*
X35611904Y-12795238D01*
X35564285Y-12890476D01*
X35516666Y-13080952D01*
X35516666Y-13223809D01*
X35564285Y-13414285D01*
X35611904Y-13509523D01*
X35707142Y-13604761D01*
X35850000Y-13652380D01*
X36088095Y-13652380D01*
X34564285Y-13652380D02*
X35135714Y-13652380D01*
X34850000Y-13652380D02*
X34850000Y-12652380D01*
X34945238Y-12795238D01*
X35040476Y-12890476D01*
X35135714Y-12938095D01*
%TO.C,K1*%
X31573095Y-2567380D02*
X31573095Y-1567380D01*
X31001666Y-2567380D02*
X31430238Y-1995952D01*
X31001666Y-1567380D02*
X31573095Y-2138809D01*
X30049285Y-2567380D02*
X30620714Y-2567380D01*
X30335000Y-2567380D02*
X30335000Y-1567380D01*
X30430238Y-1710238D01*
X30525476Y-1805476D01*
X30620714Y-1853095D01*
%TO.C,K2*%
X50638095Y-2572380D02*
X50638095Y-1572380D01*
X50066666Y-2572380D02*
X50495238Y-2000952D01*
X50066666Y-1572380D02*
X50638095Y-2143809D01*
X49685714Y-1667619D02*
X49638095Y-1620000D01*
X49542857Y-1572380D01*
X49304761Y-1572380D01*
X49209523Y-1620000D01*
X49161904Y-1667619D01*
X49114285Y-1762857D01*
X49114285Y-1858095D01*
X49161904Y-2000952D01*
X49733333Y-2572380D01*
X49114285Y-2572380D01*
%TO.C,K6*%
X54088095Y-27952380D02*
X54088095Y-26952380D01*
X53516666Y-27952380D02*
X53945238Y-27380952D01*
X53516666Y-26952380D02*
X54088095Y-27523809D01*
X52659523Y-26952380D02*
X52850000Y-26952380D01*
X52945238Y-27000000D01*
X52992857Y-27047619D01*
X53088095Y-27190476D01*
X53135714Y-27380952D01*
X53135714Y-27761904D01*
X53088095Y-27857142D01*
X53040476Y-27904761D01*
X52945238Y-27952380D01*
X52754761Y-27952380D01*
X52659523Y-27904761D01*
X52611904Y-27857142D01*
X52564285Y-27761904D01*
X52564285Y-27523809D01*
X52611904Y-27428571D01*
X52659523Y-27380952D01*
X52754761Y-27333333D01*
X52945238Y-27333333D01*
X53040476Y-27380952D01*
X53088095Y-27428571D01*
X53135714Y-27523809D01*
%TO.C,K8*%
X88088095Y-27952380D02*
X88088095Y-26952380D01*
X87516666Y-27952380D02*
X87945238Y-27380952D01*
X87516666Y-26952380D02*
X88088095Y-27523809D01*
X86945238Y-27380952D02*
X87040476Y-27333333D01*
X87088095Y-27285714D01*
X87135714Y-27190476D01*
X87135714Y-27142857D01*
X87088095Y-27047619D01*
X87040476Y-27000000D01*
X86945238Y-26952380D01*
X86754761Y-26952380D01*
X86659523Y-27000000D01*
X86611904Y-27047619D01*
X86564285Y-27142857D01*
X86564285Y-27190476D01*
X86611904Y-27285714D01*
X86659523Y-27333333D01*
X86754761Y-27380952D01*
X86945238Y-27380952D01*
X87040476Y-27428571D01*
X87088095Y-27476190D01*
X87135714Y-27571428D01*
X87135714Y-27761904D01*
X87088095Y-27857142D01*
X87040476Y-27904761D01*
X86945238Y-27952380D01*
X86754761Y-27952380D01*
X86659523Y-27904761D01*
X86611904Y-27857142D01*
X86564285Y-27761904D01*
X86564285Y-27571428D01*
X86611904Y-27476190D01*
X86659523Y-27428571D01*
X86754761Y-27380952D01*
%TO.C,K10*%
X54564285Y-44952380D02*
X54564285Y-43952380D01*
X53992857Y-44952380D02*
X54421428Y-44380952D01*
X53992857Y-43952380D02*
X54564285Y-44523809D01*
X53040476Y-44952380D02*
X53611904Y-44952380D01*
X53326190Y-44952380D02*
X53326190Y-43952380D01*
X53421428Y-44095238D01*
X53516666Y-44190476D01*
X53611904Y-44238095D01*
X52421428Y-43952380D02*
X52326190Y-43952380D01*
X52230952Y-44000000D01*
X52183333Y-44047619D01*
X52135714Y-44142857D01*
X52088095Y-44333333D01*
X52088095Y-44571428D01*
X52135714Y-44761904D01*
X52183333Y-44857142D01*
X52230952Y-44904761D01*
X52326190Y-44952380D01*
X52421428Y-44952380D01*
X52516666Y-44904761D01*
X52564285Y-44857142D01*
X52611904Y-44761904D01*
X52659523Y-44571428D01*
X52659523Y-44333333D01*
X52611904Y-44142857D01*
X52564285Y-44047619D01*
X52516666Y-44000000D01*
X52421428Y-43952380D01*
%TO.C,K3*%
X71088095Y-10952380D02*
X71088095Y-9952380D01*
X70516666Y-10952380D02*
X70945238Y-10380952D01*
X70516666Y-9952380D02*
X71088095Y-10523809D01*
X70183333Y-9952380D02*
X69564285Y-9952380D01*
X69897619Y-10333333D01*
X69754761Y-10333333D01*
X69659523Y-10380952D01*
X69611904Y-10428571D01*
X69564285Y-10523809D01*
X69564285Y-10761904D01*
X69611904Y-10857142D01*
X69659523Y-10904761D01*
X69754761Y-10952380D01*
X70040476Y-10952380D01*
X70135714Y-10904761D01*
X70183333Y-10857142D01*
%TO.C,K4*%
X88088095Y-10952380D02*
X88088095Y-9952380D01*
X87516666Y-10952380D02*
X87945238Y-10380952D01*
X87516666Y-9952380D02*
X88088095Y-10523809D01*
X86659523Y-10285714D02*
X86659523Y-10952380D01*
X86897619Y-9904761D02*
X87135714Y-10619047D01*
X86516666Y-10619047D01*
%TO.C,K5*%
X37088095Y-27952380D02*
X37088095Y-26952380D01*
X36516666Y-27952380D02*
X36945238Y-27380952D01*
X36516666Y-26952380D02*
X37088095Y-27523809D01*
X35611904Y-26952380D02*
X36088095Y-26952380D01*
X36135714Y-27428571D01*
X36088095Y-27380952D01*
X35992857Y-27333333D01*
X35754761Y-27333333D01*
X35659523Y-27380952D01*
X35611904Y-27428571D01*
X35564285Y-27523809D01*
X35564285Y-27761904D01*
X35611904Y-27857142D01*
X35659523Y-27904761D01*
X35754761Y-27952380D01*
X35992857Y-27952380D01*
X36088095Y-27904761D01*
X36135714Y-27857142D01*
%TO.C,K7*%
X71088095Y-27952380D02*
X71088095Y-26952380D01*
X70516666Y-27952380D02*
X70945238Y-27380952D01*
X70516666Y-26952380D02*
X71088095Y-27523809D01*
X70183333Y-26952380D02*
X69516666Y-26952380D01*
X69945238Y-27952380D01*
%TO.C,K9*%
X37088095Y-44952380D02*
X37088095Y-43952380D01*
X36516666Y-44952380D02*
X36945238Y-44380952D01*
X36516666Y-43952380D02*
X37088095Y-44523809D01*
X36040476Y-44952380D02*
X35850000Y-44952380D01*
X35754761Y-44904761D01*
X35707142Y-44857142D01*
X35611904Y-44714285D01*
X35564285Y-44523809D01*
X35564285Y-44142857D01*
X35611904Y-44047619D01*
X35659523Y-44000000D01*
X35754761Y-43952380D01*
X35945238Y-43952380D01*
X36040476Y-44000000D01*
X36088095Y-44047619D01*
X36135714Y-44142857D01*
X36135714Y-44380952D01*
X36088095Y-44476190D01*
X36040476Y-44523809D01*
X35945238Y-44571428D01*
X35754761Y-44571428D01*
X35659523Y-44523809D01*
X35611904Y-44476190D01*
X35564285Y-44380952D01*
%TO.C,K13*%
X37564285Y-61952380D02*
X37564285Y-60952380D01*
X36992857Y-61952380D02*
X37421428Y-61380952D01*
X36992857Y-60952380D02*
X37564285Y-61523809D01*
X36040476Y-61952380D02*
X36611904Y-61952380D01*
X36326190Y-61952380D02*
X36326190Y-60952380D01*
X36421428Y-61095238D01*
X36516666Y-61190476D01*
X36611904Y-61238095D01*
X35707142Y-60952380D02*
X35088095Y-60952380D01*
X35421428Y-61333333D01*
X35278571Y-61333333D01*
X35183333Y-61380952D01*
X35135714Y-61428571D01*
X35088095Y-61523809D01*
X35088095Y-61761904D01*
X35135714Y-61857142D01*
X35183333Y-61904761D01*
X35278571Y-61952380D01*
X35564285Y-61952380D01*
X35659523Y-61904761D01*
X35707142Y-61857142D01*
%TO.C,K14*%
X54564285Y-61952380D02*
X54564285Y-60952380D01*
X53992857Y-61952380D02*
X54421428Y-61380952D01*
X53992857Y-60952380D02*
X54564285Y-61523809D01*
X53040476Y-61952380D02*
X53611904Y-61952380D01*
X53326190Y-61952380D02*
X53326190Y-60952380D01*
X53421428Y-61095238D01*
X53516666Y-61190476D01*
X53611904Y-61238095D01*
X52183333Y-61285714D02*
X52183333Y-61952380D01*
X52421428Y-60904761D02*
X52659523Y-61619047D01*
X52040476Y-61619047D01*
%TO.C,K15*%
X71564285Y-61952380D02*
X71564285Y-60952380D01*
X70992857Y-61952380D02*
X71421428Y-61380952D01*
X70992857Y-60952380D02*
X71564285Y-61523809D01*
X70040476Y-61952380D02*
X70611904Y-61952380D01*
X70326190Y-61952380D02*
X70326190Y-60952380D01*
X70421428Y-61095238D01*
X70516666Y-61190476D01*
X70611904Y-61238095D01*
X69135714Y-60952380D02*
X69611904Y-60952380D01*
X69659523Y-61428571D01*
X69611904Y-61380952D01*
X69516666Y-61333333D01*
X69278571Y-61333333D01*
X69183333Y-61380952D01*
X69135714Y-61428571D01*
X69088095Y-61523809D01*
X69088095Y-61761904D01*
X69135714Y-61857142D01*
X69183333Y-61904761D01*
X69278571Y-61952380D01*
X69516666Y-61952380D01*
X69611904Y-61904761D01*
X69659523Y-61857142D01*
%TO.C,K17*%
X37564285Y-78952380D02*
X37564285Y-77952380D01*
X36992857Y-78952380D02*
X37421428Y-78380952D01*
X36992857Y-77952380D02*
X37564285Y-78523809D01*
X36040476Y-78952380D02*
X36611904Y-78952380D01*
X36326190Y-78952380D02*
X36326190Y-77952380D01*
X36421428Y-78095238D01*
X36516666Y-78190476D01*
X36611904Y-78238095D01*
X35707142Y-77952380D02*
X35040476Y-77952380D01*
X35469047Y-78952380D01*
%TO.C,K18*%
X54564285Y-78952380D02*
X54564285Y-77952380D01*
X53992857Y-78952380D02*
X54421428Y-78380952D01*
X53992857Y-77952380D02*
X54564285Y-78523809D01*
X53040476Y-78952380D02*
X53611904Y-78952380D01*
X53326190Y-78952380D02*
X53326190Y-77952380D01*
X53421428Y-78095238D01*
X53516666Y-78190476D01*
X53611904Y-78238095D01*
X52469047Y-78380952D02*
X52564285Y-78333333D01*
X52611904Y-78285714D01*
X52659523Y-78190476D01*
X52659523Y-78142857D01*
X52611904Y-78047619D01*
X52564285Y-78000000D01*
X52469047Y-77952380D01*
X52278571Y-77952380D01*
X52183333Y-78000000D01*
X52135714Y-78047619D01*
X52088095Y-78142857D01*
X52088095Y-78190476D01*
X52135714Y-78285714D01*
X52183333Y-78333333D01*
X52278571Y-78380952D01*
X52469047Y-78380952D01*
X52564285Y-78428571D01*
X52611904Y-78476190D01*
X52659523Y-78571428D01*
X52659523Y-78761904D01*
X52611904Y-78857142D01*
X52564285Y-78904761D01*
X52469047Y-78952380D01*
X52278571Y-78952380D01*
X52183333Y-78904761D01*
X52135714Y-78857142D01*
X52088095Y-78761904D01*
X52088095Y-78571428D01*
X52135714Y-78476190D01*
X52183333Y-78428571D01*
X52278571Y-78380952D01*
%TO.C,K19*%
X71564285Y-78952380D02*
X71564285Y-77952380D01*
X70992857Y-78952380D02*
X71421428Y-78380952D01*
X70992857Y-77952380D02*
X71564285Y-78523809D01*
X70040476Y-78952380D02*
X70611904Y-78952380D01*
X70326190Y-78952380D02*
X70326190Y-77952380D01*
X70421428Y-78095238D01*
X70516666Y-78190476D01*
X70611904Y-78238095D01*
X69564285Y-78952380D02*
X69373809Y-78952380D01*
X69278571Y-78904761D01*
X69230952Y-78857142D01*
X69135714Y-78714285D01*
X69088095Y-78523809D01*
X69088095Y-78142857D01*
X69135714Y-78047619D01*
X69183333Y-78000000D01*
X69278571Y-77952380D01*
X69469047Y-77952380D01*
X69564285Y-78000000D01*
X69611904Y-78047619D01*
X69659523Y-78142857D01*
X69659523Y-78380952D01*
X69611904Y-78476190D01*
X69564285Y-78523809D01*
X69469047Y-78571428D01*
X69278571Y-78571428D01*
X69183333Y-78523809D01*
X69135714Y-78476190D01*
X69088095Y-78380952D01*
%TO.C,K20*%
X88564285Y-78952380D02*
X88564285Y-77952380D01*
X87992857Y-78952380D02*
X88421428Y-78380952D01*
X87992857Y-77952380D02*
X88564285Y-78523809D01*
X87611904Y-78047619D02*
X87564285Y-78000000D01*
X87469047Y-77952380D01*
X87230952Y-77952380D01*
X87135714Y-78000000D01*
X87088095Y-78047619D01*
X87040476Y-78142857D01*
X87040476Y-78238095D01*
X87088095Y-78380952D01*
X87659523Y-78952380D01*
X87040476Y-78952380D01*
X86421428Y-77952380D02*
X86326190Y-77952380D01*
X86230952Y-78000000D01*
X86183333Y-78047619D01*
X86135714Y-78142857D01*
X86088095Y-78333333D01*
X86088095Y-78571428D01*
X86135714Y-78761904D01*
X86183333Y-78857142D01*
X86230952Y-78904761D01*
X86326190Y-78952380D01*
X86421428Y-78952380D01*
X86516666Y-78904761D01*
X86564285Y-78857142D01*
X86611904Y-78761904D01*
X86659523Y-78571428D01*
X86659523Y-78333333D01*
X86611904Y-78142857D01*
X86564285Y-78047619D01*
X86516666Y-78000000D01*
X86421428Y-77952380D01*
%TO.C,K12*%
X88564285Y-44952380D02*
X88564285Y-43952380D01*
X87992857Y-44952380D02*
X88421428Y-44380952D01*
X87992857Y-43952380D02*
X88564285Y-44523809D01*
X87040476Y-44952380D02*
X87611904Y-44952380D01*
X87326190Y-44952380D02*
X87326190Y-43952380D01*
X87421428Y-44095238D01*
X87516666Y-44190476D01*
X87611904Y-44238095D01*
X86659523Y-44047619D02*
X86611904Y-44000000D01*
X86516666Y-43952380D01*
X86278571Y-43952380D01*
X86183333Y-44000000D01*
X86135714Y-44047619D01*
X86088095Y-44142857D01*
X86088095Y-44238095D01*
X86135714Y-44380952D01*
X86707142Y-44952380D01*
X86088095Y-44952380D01*
%TO.C,K11*%
X71564285Y-44952380D02*
X71564285Y-43952380D01*
X70992857Y-44952380D02*
X71421428Y-44380952D01*
X70992857Y-43952380D02*
X71564285Y-44523809D01*
X70040476Y-44952380D02*
X70611904Y-44952380D01*
X70326190Y-44952380D02*
X70326190Y-43952380D01*
X70421428Y-44095238D01*
X70516666Y-44190476D01*
X70611904Y-44238095D01*
X69088095Y-44952380D02*
X69659523Y-44952380D01*
X69373809Y-44952380D02*
X69373809Y-43952380D01*
X69469047Y-44095238D01*
X69564285Y-44190476D01*
X69659523Y-44238095D01*
%TO.C,K16*%
X88564285Y-61952380D02*
X88564285Y-60952380D01*
X87992857Y-61952380D02*
X88421428Y-61380952D01*
X87992857Y-60952380D02*
X88564285Y-61523809D01*
X87040476Y-61952380D02*
X87611904Y-61952380D01*
X87326190Y-61952380D02*
X87326190Y-60952380D01*
X87421428Y-61095238D01*
X87516666Y-61190476D01*
X87611904Y-61238095D01*
X86183333Y-60952380D02*
X86373809Y-60952380D01*
X86469047Y-61000000D01*
X86516666Y-61047619D01*
X86611904Y-61190476D01*
X86659523Y-61380952D01*
X86659523Y-61761904D01*
X86611904Y-61857142D01*
X86564285Y-61904761D01*
X86469047Y-61952380D01*
X86278571Y-61952380D01*
X86183333Y-61904761D01*
X86135714Y-61857142D01*
X86088095Y-61761904D01*
X86088095Y-61523809D01*
X86135714Y-61428571D01*
X86183333Y-61380952D01*
X86278571Y-61333333D01*
X86469047Y-61333333D01*
X86564285Y-61380952D01*
X86611904Y-61428571D01*
X86659523Y-61523809D01*
%TD*%
M02*
