M48
; DRILL file {KiCad (5.1.10)-1} date 08/08/21 16:05:15
; FORMAT={-:-/ absolute / inch / decimal}
; #@! TF.CreationDate,2021-08-08T16:05:15+01:00
; #@! TF.GenerationSoftware,Kicad,Pcbnew,(5.1.10)-1
; #@! TF.FileFunction,NonPlated,1,2,NPTH
FMAT,2
INCH
T1C0.0669
T2C0.1181
T3C0.1575
%
G90
G05
T1
X1.014Y-0.4258
X1.2311Y-1.4252
X1.2311Y-2.0945
X1.2311Y-2.7638
X1.2311Y-3.4331
X1.414Y-0.4258
X1.6311Y-1.4252
X1.6311Y-2.0945
X1.6311Y-2.7638
X1.6311Y-3.4331
X1.7646Y-0.426
X1.9004Y-1.4252
X1.9004Y-2.0945
X1.9004Y-2.7638
X1.9004Y-3.4331
X2.1646Y-0.426
X2.3004Y-1.4252
X2.3004Y-2.0945
X2.3004Y-2.7638
X2.3004Y-3.4331
X2.5697Y-0.7559
X2.5697Y-1.4252
X2.5697Y-2.0945
X2.5697Y-2.7638
X2.5697Y-3.4331
X2.9697Y-0.7559
X2.9697Y-1.4252
X2.9697Y-2.0945
X2.9697Y-2.7638
X2.9697Y-3.4331
X3.239Y-0.7559
X3.239Y-1.4252
X3.239Y-2.0945
X3.239Y-2.7638
X3.239Y-3.4331
X3.639Y-0.7559
X3.639Y-1.4252
X3.639Y-2.0945
X3.639Y-2.7638
X3.639Y-3.4331
T2
X1.064Y-0.3258
X1.2811Y-1.3252
X1.2811Y-1.9945
X1.2811Y-2.6638
X1.2811Y-3.3331
X1.314Y-0.2258
X1.5311Y-1.2252
X1.5311Y-1.8945
X1.5311Y-2.5638
X1.5311Y-3.2331
X1.8146Y-0.326
X1.9504Y-1.3252
X1.9504Y-1.9945
X1.9504Y-2.6638
X1.9504Y-3.3331
X2.0646Y-0.226
X2.2004Y-1.2252
X2.2004Y-1.8945
X2.2004Y-2.5638
X2.2004Y-3.2331
X2.6197Y-0.6559
X2.6197Y-1.3252
X2.6197Y-1.9945
X2.6197Y-2.6638
X2.6197Y-3.3331
X2.8697Y-0.5559
X2.8697Y-1.2252
X2.8697Y-1.8945
X2.8697Y-2.5638
X2.8697Y-3.2331
X3.289Y-0.6559
X3.289Y-1.3252
X3.289Y-1.9945
X3.289Y-2.6638
X3.289Y-3.3331
X3.539Y-0.5559
X3.539Y-1.2252
X3.539Y-1.8945
X3.539Y-2.5638
X3.539Y-3.2331
T3
X1.214Y-0.4258
X1.4311Y-1.4252
X1.4311Y-2.0945
X1.4311Y-2.7638
X1.4311Y-3.4331
X1.9646Y-0.426
X2.1004Y-1.4252
X2.1004Y-2.0945
X2.1004Y-2.7638
X2.1004Y-3.4331
X2.7697Y-0.7559
X2.7697Y-1.4252
X2.7697Y-2.0945
X2.7697Y-2.7638
X2.7697Y-3.4331
X3.439Y-0.7559
X3.439Y-1.4252
X3.439Y-2.0945
X3.439Y-2.7638
X3.439Y-3.4331
T0
M30
