%TF.GenerationSoftware,KiCad,Pcbnew,(5.1.10)-1*%
%TF.CreationDate,2021-08-08T16:05:11+01:00*%
%TF.ProjectId,bongopad,626f6e67-6f70-4616-942e-6b696361645f,1*%
%TF.SameCoordinates,PXb71b00PYb71b00*%
%TF.FileFunction,OtherDrawing,Comment*%
%FSLAX46Y46*%
G04 Gerber Fmt 4.6, Leading zero omitted, Abs format (unit mm)*
G04 Created by KiCad (PCBNEW (5.1.10)-1) date 2021-08-08 16:05:11*
%MOMM*%
%LPD*%
G01*
G04 APERTURE LIST*
%ADD10C,0.150000*%
%ADD11C,0.127000*%
%ADD12C,0.152400*%
G04 APERTURE END LIST*
D10*
X105952380Y-54047619D02*
X105952380Y-54619047D01*
X105952380Y-54333333D02*
X104952380Y-54333333D01*
X105095238Y-54428571D01*
X105190476Y-54523809D01*
X105238095Y-54619047D01*
X104952380Y-53428571D02*
X104952380Y-53333333D01*
X105000000Y-53238095D01*
X105047619Y-53190476D01*
X105142857Y-53142857D01*
X105333333Y-53095238D01*
X105571428Y-53095238D01*
X105761904Y-53142857D01*
X105857142Y-53190476D01*
X105904761Y-53238095D01*
X105952380Y-53333333D01*
X105952380Y-53428571D01*
X105904761Y-53523809D01*
X105857142Y-53571428D01*
X105761904Y-53619047D01*
X105571428Y-53666666D01*
X105333333Y-53666666D01*
X105142857Y-53619047D01*
X105047619Y-53571428D01*
X105000000Y-53523809D01*
X104952380Y-53428571D01*
X104952380Y-52476190D02*
X104952380Y-52380952D01*
X105000000Y-52285714D01*
X105047619Y-52238095D01*
X105142857Y-52190476D01*
X105333333Y-52142857D01*
X105571428Y-52142857D01*
X105761904Y-52190476D01*
X105857142Y-52238095D01*
X105904761Y-52285714D01*
X105952380Y-52380952D01*
X105952380Y-52476190D01*
X105904761Y-52571428D01*
X105857142Y-52619047D01*
X105761904Y-52666666D01*
X105571428Y-52714285D01*
X105333333Y-52714285D01*
X105142857Y-52666666D01*
X105047619Y-52619047D01*
X105000000Y-52571428D01*
X104952380Y-52476190D01*
X105857142Y-51714285D02*
X105904761Y-51666666D01*
X105952380Y-51714285D01*
X105904761Y-51761904D01*
X105857142Y-51714285D01*
X105952380Y-51714285D01*
X104952380Y-51047619D02*
X104952380Y-50952380D01*
X105000000Y-50857142D01*
X105047619Y-50809523D01*
X105142857Y-50761904D01*
X105333333Y-50714285D01*
X105571428Y-50714285D01*
X105761904Y-50761904D01*
X105857142Y-50809523D01*
X105904761Y-50857142D01*
X105952380Y-50952380D01*
X105952380Y-51047619D01*
X105904761Y-51142857D01*
X105857142Y-51190476D01*
X105761904Y-51238095D01*
X105571428Y-51285714D01*
X105333333Y-51285714D01*
X105142857Y-51238095D01*
X105047619Y-51190476D01*
X105000000Y-51142857D01*
X104952380Y-51047619D01*
X104952380Y-50095238D02*
X104952380Y-50000000D01*
X105000000Y-49904761D01*
X105047619Y-49857142D01*
X105142857Y-49809523D01*
X105333333Y-49761904D01*
X105571428Y-49761904D01*
X105761904Y-49809523D01*
X105857142Y-49857142D01*
X105904761Y-49904761D01*
X105952380Y-50000000D01*
X105952380Y-50095238D01*
X105904761Y-50190476D01*
X105857142Y-50238095D01*
X105761904Y-50285714D01*
X105571428Y-50333333D01*
X105333333Y-50333333D01*
X105142857Y-50285714D01*
X105047619Y-50238095D01*
X105000000Y-50190476D01*
X104952380Y-50095238D01*
X104952380Y-49142857D02*
X104952380Y-49047619D01*
X105000000Y-48952380D01*
X105047619Y-48904761D01*
X105142857Y-48857142D01*
X105333333Y-48809523D01*
X105571428Y-48809523D01*
X105761904Y-48857142D01*
X105857142Y-48904761D01*
X105904761Y-48952380D01*
X105952380Y-49047619D01*
X105952380Y-49142857D01*
X105904761Y-49238095D01*
X105857142Y-49285714D01*
X105761904Y-49333333D01*
X105571428Y-49380952D01*
X105333333Y-49380952D01*
X105142857Y-49333333D01*
X105047619Y-49285714D01*
X105000000Y-49238095D01*
X104952380Y-49142857D01*
X105952380Y-47619047D02*
X105285714Y-47619047D01*
X105380952Y-47619047D02*
X105333333Y-47571428D01*
X105285714Y-47476190D01*
X105285714Y-47333333D01*
X105333333Y-47238095D01*
X105428571Y-47190476D01*
X105952380Y-47190476D01*
X105428571Y-47190476D02*
X105333333Y-47142857D01*
X105285714Y-47047619D01*
X105285714Y-46904761D01*
X105333333Y-46809523D01*
X105428571Y-46761904D01*
X105952380Y-46761904D01*
X105952380Y-46285714D02*
X105285714Y-46285714D01*
X105380952Y-46285714D02*
X105333333Y-46238095D01*
X105285714Y-46142857D01*
X105285714Y-46000000D01*
X105333333Y-45904761D01*
X105428571Y-45857142D01*
X105952380Y-45857142D01*
X105428571Y-45857142D02*
X105333333Y-45809523D01*
X105285714Y-45714285D01*
X105285714Y-45571428D01*
X105333333Y-45476190D01*
X105428571Y-45428571D01*
X105952380Y-45428571D01*
X104200000Y-100000000D02*
X104200000Y0D01*
X100000000Y-100000000D02*
X104786421Y-100000000D01*
X100000000Y0D02*
X104786421Y0D01*
X104200000Y0D02*
X104786421Y-1126504D01*
X104200000Y0D02*
X103613579Y-1126504D01*
X104200000Y-100000000D02*
X104786421Y-98873496D01*
X104200000Y-100000000D02*
X103613579Y-98873496D01*
X45952380Y-105227379D02*
X45380952Y-105227379D01*
X45666666Y-105227379D02*
X45666666Y-104227379D01*
X45571428Y-104370237D01*
X45476190Y-104465475D01*
X45380952Y-104513094D01*
X46571428Y-104227379D02*
X46666666Y-104227379D01*
X46761904Y-104274999D01*
X46809523Y-104322618D01*
X46857142Y-104417856D01*
X46904761Y-104608332D01*
X46904761Y-104846427D01*
X46857142Y-105036903D01*
X46809523Y-105132141D01*
X46761904Y-105179760D01*
X46666666Y-105227379D01*
X46571428Y-105227379D01*
X46476190Y-105179760D01*
X46428571Y-105132141D01*
X46380952Y-105036903D01*
X46333333Y-104846427D01*
X46333333Y-104608332D01*
X46380952Y-104417856D01*
X46428571Y-104322618D01*
X46476190Y-104274999D01*
X46571428Y-104227379D01*
X47523809Y-104227379D02*
X47619047Y-104227379D01*
X47714285Y-104274999D01*
X47761904Y-104322618D01*
X47809523Y-104417856D01*
X47857142Y-104608332D01*
X47857142Y-104846427D01*
X47809523Y-105036903D01*
X47761904Y-105132141D01*
X47714285Y-105179760D01*
X47619047Y-105227379D01*
X47523809Y-105227379D01*
X47428571Y-105179760D01*
X47380952Y-105132141D01*
X47333333Y-105036903D01*
X47285714Y-104846427D01*
X47285714Y-104608332D01*
X47333333Y-104417856D01*
X47380952Y-104322618D01*
X47428571Y-104274999D01*
X47523809Y-104227379D01*
X48285714Y-105132141D02*
X48333333Y-105179760D01*
X48285714Y-105227379D01*
X48238095Y-105179760D01*
X48285714Y-105132141D01*
X48285714Y-105227379D01*
X48952380Y-104227379D02*
X49047619Y-104227379D01*
X49142857Y-104274999D01*
X49190476Y-104322618D01*
X49238095Y-104417856D01*
X49285714Y-104608332D01*
X49285714Y-104846427D01*
X49238095Y-105036903D01*
X49190476Y-105132141D01*
X49142857Y-105179760D01*
X49047619Y-105227379D01*
X48952380Y-105227379D01*
X48857142Y-105179760D01*
X48809523Y-105132141D01*
X48761904Y-105036903D01*
X48714285Y-104846427D01*
X48714285Y-104608332D01*
X48761904Y-104417856D01*
X48809523Y-104322618D01*
X48857142Y-104274999D01*
X48952380Y-104227379D01*
X49904761Y-104227379D02*
X49999999Y-104227379D01*
X50095238Y-104274999D01*
X50142857Y-104322618D01*
X50190476Y-104417856D01*
X50238095Y-104608332D01*
X50238095Y-104846427D01*
X50190476Y-105036903D01*
X50142857Y-105132141D01*
X50095238Y-105179760D01*
X49999999Y-105227379D01*
X49904761Y-105227379D01*
X49809523Y-105179760D01*
X49761904Y-105132141D01*
X49714285Y-105036903D01*
X49666666Y-104846427D01*
X49666666Y-104608332D01*
X49714285Y-104417856D01*
X49761904Y-104322618D01*
X49809523Y-104274999D01*
X49904761Y-104227379D01*
X50857142Y-104227379D02*
X50952380Y-104227379D01*
X51047619Y-104274999D01*
X51095238Y-104322618D01*
X51142857Y-104417856D01*
X51190476Y-104608332D01*
X51190476Y-104846427D01*
X51142857Y-105036903D01*
X51095238Y-105132141D01*
X51047619Y-105179760D01*
X50952380Y-105227379D01*
X50857142Y-105227379D01*
X50761904Y-105179760D01*
X50714285Y-105132141D01*
X50666666Y-105036903D01*
X50619047Y-104846427D01*
X50619047Y-104608332D01*
X50666666Y-104417856D01*
X50714285Y-104322618D01*
X50761904Y-104274999D01*
X50857142Y-104227379D01*
X52380952Y-105227379D02*
X52380952Y-104560713D01*
X52380952Y-104655951D02*
X52428571Y-104608332D01*
X52523809Y-104560713D01*
X52666666Y-104560713D01*
X52761904Y-104608332D01*
X52809523Y-104703570D01*
X52809523Y-105227379D01*
X52809523Y-104703570D02*
X52857142Y-104608332D01*
X52952380Y-104560713D01*
X53095238Y-104560713D01*
X53190476Y-104608332D01*
X53238095Y-104703570D01*
X53238095Y-105227379D01*
X53714285Y-105227379D02*
X53714285Y-104560713D01*
X53714285Y-104655951D02*
X53761904Y-104608332D01*
X53857142Y-104560713D01*
X54000000Y-104560713D01*
X54095238Y-104608332D01*
X54142857Y-104703570D01*
X54142857Y-105227379D01*
X54142857Y-104703570D02*
X54190476Y-104608332D01*
X54285714Y-104560713D01*
X54428571Y-104560713D01*
X54523809Y-104608332D01*
X54571428Y-104703570D01*
X54571428Y-105227379D01*
X0Y-103474999D02*
X100000000Y-103474999D01*
X0Y-100000000D02*
X0Y-104061420D01*
X100000000Y-100000000D02*
X100000000Y-104061420D01*
X100000000Y-103474999D02*
X98873496Y-104061420D01*
X100000000Y-103474999D02*
X98873496Y-102888578D01*
X0Y-103474999D02*
X1126504Y-104061420D01*
X0Y-103474999D02*
X1126504Y-102888578D01*
D11*
%TO.C,MCU1*%
X860000Y10000D02*
X860000Y-33010000D01*
X860000Y-33010000D02*
X18640000Y-33010000D01*
X18640000Y-33010000D02*
X18640000Y10000D01*
X18640000Y10000D02*
X860000Y10000D01*
X5940000Y10000D02*
X5940000Y1280000D01*
X5940000Y1280000D02*
X13560000Y1280000D01*
X13560000Y1280000D02*
X13560000Y10000D01*
%TD*%
%TO.C,MCU1*%
D12*
X8673523Y861505D02*
X8673523Y203524D01*
X8712228Y126115D01*
X8750933Y87410D01*
X8828342Y48705D01*
X8983161Y48705D01*
X9060571Y87410D01*
X9099276Y126115D01*
X9137980Y203524D01*
X9137980Y861505D01*
X9486323Y87410D02*
X9602438Y48705D01*
X9795961Y48705D01*
X9873371Y87410D01*
X9912076Y126115D01*
X9950780Y203524D01*
X9950780Y280934D01*
X9912076Y358343D01*
X9873371Y397048D01*
X9795961Y435753D01*
X9641142Y474458D01*
X9563733Y513162D01*
X9525028Y551867D01*
X9486323Y629277D01*
X9486323Y706686D01*
X9525028Y784096D01*
X9563733Y822800D01*
X9641142Y861505D01*
X9834666Y861505D01*
X9950780Y822800D01*
X10570057Y474458D02*
X10686171Y435753D01*
X10724876Y397048D01*
X10763580Y319639D01*
X10763580Y203524D01*
X10724876Y126115D01*
X10686171Y87410D01*
X10608761Y48705D01*
X10299123Y48705D01*
X10299123Y861505D01*
X10570057Y861505D01*
X10647466Y822800D01*
X10686171Y784096D01*
X10724876Y706686D01*
X10724876Y629277D01*
X10686171Y551867D01*
X10647466Y513162D01*
X10570057Y474458D01*
X10299123Y474458D01*
%TD*%
M02*
