%TF.GenerationSoftware,KiCad,Pcbnew,(5.1.10)-1*%
%TF.CreationDate,2021-08-08T16:05:11+01:00*%
%TF.ProjectId,bongopad,626f6e67-6f70-4616-942e-6b696361645f,1*%
%TF.SameCoordinates,PXb71b00PYb71b00*%
%TF.FileFunction,Other,Fab,Top*%
%FSLAX46Y46*%
G04 Gerber Fmt 4.6, Leading zero omitted, Abs format (unit mm)*
G04 Created by KiCad (PCBNEW (5.1.10)-1) date 2021-08-08 16:05:11*
%MOMM*%
%LPD*%
G01*
G04 APERTURE LIST*
%ADD10C,0.120000*%
%ADD11C,0.150000*%
G04 APERTURE END LIST*
D10*
%TO.C,ROT3*%
X13250000Y-79250000D02*
G75*
G03*
X13250000Y-79250000I-3000000J0D01*
G01*
X5250000Y-73450000D02*
X16250000Y-73450000D01*
X16250000Y-73450000D02*
X16250000Y-85050000D01*
X16250000Y-85050000D02*
X4250000Y-85050000D01*
X4250000Y-85050000D02*
X4250000Y-74550000D01*
X4250000Y-74550000D02*
X5250000Y-73450000D01*
X10250000Y-76250000D02*
X10250000Y-82250000D01*
X7250000Y-79250000D02*
X13250000Y-79250000D01*
%TO.C,ROT2*%
X13250000Y-63500000D02*
G75*
G03*
X13250000Y-63500000I-3000000J0D01*
G01*
X5250000Y-57700000D02*
X16250000Y-57700000D01*
X16250000Y-57700000D02*
X16250000Y-69300000D01*
X16250000Y-69300000D02*
X4250000Y-69300000D01*
X4250000Y-69300000D02*
X4250000Y-58800000D01*
X4250000Y-58800000D02*
X5250000Y-57700000D01*
X10250000Y-60500000D02*
X10250000Y-66500000D01*
X7250000Y-63500000D02*
X13250000Y-63500000D01*
%TO.C,ROT1*%
X13250000Y-47250000D02*
G75*
G03*
X13250000Y-47250000I-3000000J0D01*
G01*
X5250000Y-41450000D02*
X16250000Y-41450000D01*
X16250000Y-41450000D02*
X16250000Y-53050000D01*
X16250000Y-53050000D02*
X4250000Y-53050000D01*
X4250000Y-53050000D02*
X4250000Y-42550000D01*
X4250000Y-42550000D02*
X5250000Y-41450000D01*
X10250000Y-44250000D02*
X10250000Y-50250000D01*
X7250000Y-47250000D02*
X13250000Y-47250000D01*
%TO.C,K1*%
X38635000Y-18615000D02*
X23035000Y-18615000D01*
X23035000Y-18615000D02*
X23035000Y-3015000D01*
X38635000Y-18615000D02*
X38635000Y-3015000D01*
X23035000Y-3015000D02*
X38635000Y-3015000D01*
%TO.C,K2*%
X57700000Y-18620000D02*
X42100000Y-18620000D01*
X42100000Y-18620000D02*
X42100000Y-3020000D01*
X57700000Y-18620000D02*
X57700000Y-3020000D01*
X42100000Y-3020000D02*
X57700000Y-3020000D01*
%TO.C,K6*%
X61150000Y-44000000D02*
X45550000Y-44000000D01*
X45550000Y-44000000D02*
X45550000Y-28400000D01*
X61150000Y-44000000D02*
X61150000Y-28400000D01*
X45550000Y-28400000D02*
X61150000Y-28400000D01*
%TO.C,K8*%
X95150000Y-44000000D02*
X79550000Y-44000000D01*
X79550000Y-44000000D02*
X79550000Y-28400000D01*
X95150000Y-44000000D02*
X95150000Y-28400000D01*
X79550000Y-28400000D02*
X95150000Y-28400000D01*
%TO.C,K10*%
X61150000Y-61000000D02*
X45550000Y-61000000D01*
X45550000Y-61000000D02*
X45550000Y-45400000D01*
X61150000Y-61000000D02*
X61150000Y-45400000D01*
X45550000Y-45400000D02*
X61150000Y-45400000D01*
%TO.C,K3*%
X78150000Y-27000000D02*
X62550000Y-27000000D01*
X62550000Y-27000000D02*
X62550000Y-11400000D01*
X78150000Y-27000000D02*
X78150000Y-11400000D01*
X62550000Y-11400000D02*
X78150000Y-11400000D01*
%TO.C,K4*%
X95150000Y-27000000D02*
X79550000Y-27000000D01*
X79550000Y-27000000D02*
X79550000Y-11400000D01*
X95150000Y-27000000D02*
X95150000Y-11400000D01*
X79550000Y-11400000D02*
X95150000Y-11400000D01*
%TO.C,K5*%
X44150000Y-44000000D02*
X28550000Y-44000000D01*
X28550000Y-44000000D02*
X28550000Y-28400000D01*
X44150000Y-44000000D02*
X44150000Y-28400000D01*
X28550000Y-28400000D02*
X44150000Y-28400000D01*
%TO.C,K7*%
X78150000Y-44000000D02*
X62550000Y-44000000D01*
X62550000Y-44000000D02*
X62550000Y-28400000D01*
X78150000Y-44000000D02*
X78150000Y-28400000D01*
X62550000Y-28400000D02*
X78150000Y-28400000D01*
%TO.C,K9*%
X44150000Y-61000000D02*
X28550000Y-61000000D01*
X28550000Y-61000000D02*
X28550000Y-45400000D01*
X44150000Y-61000000D02*
X44150000Y-45400000D01*
X28550000Y-45400000D02*
X44150000Y-45400000D01*
%TO.C,K13*%
X44150000Y-78000000D02*
X28550000Y-78000000D01*
X28550000Y-78000000D02*
X28550000Y-62400000D01*
X44150000Y-78000000D02*
X44150000Y-62400000D01*
X28550000Y-62400000D02*
X44150000Y-62400000D01*
%TO.C,K14*%
X61150000Y-78000000D02*
X45550000Y-78000000D01*
X45550000Y-78000000D02*
X45550000Y-62400000D01*
X61150000Y-78000000D02*
X61150000Y-62400000D01*
X45550000Y-62400000D02*
X61150000Y-62400000D01*
%TO.C,K15*%
X78150000Y-78000000D02*
X62550000Y-78000000D01*
X62550000Y-78000000D02*
X62550000Y-62400000D01*
X78150000Y-78000000D02*
X78150000Y-62400000D01*
X62550000Y-62400000D02*
X78150000Y-62400000D01*
%TO.C,K17*%
X44150000Y-95000000D02*
X28550000Y-95000000D01*
X28550000Y-95000000D02*
X28550000Y-79400000D01*
X44150000Y-95000000D02*
X44150000Y-79400000D01*
X28550000Y-79400000D02*
X44150000Y-79400000D01*
%TO.C,K18*%
X61150000Y-95000000D02*
X45550000Y-95000000D01*
X45550000Y-95000000D02*
X45550000Y-79400000D01*
X61150000Y-95000000D02*
X61150000Y-79400000D01*
X45550000Y-79400000D02*
X61150000Y-79400000D01*
%TO.C,K19*%
X78150000Y-95000000D02*
X62550000Y-95000000D01*
X62550000Y-95000000D02*
X62550000Y-79400000D01*
X78150000Y-95000000D02*
X78150000Y-79400000D01*
X62550000Y-79400000D02*
X78150000Y-79400000D01*
%TO.C,K20*%
X95150000Y-95000000D02*
X79550000Y-95000000D01*
X79550000Y-95000000D02*
X79550000Y-79400000D01*
X95150000Y-95000000D02*
X95150000Y-79400000D01*
X79550000Y-79400000D02*
X95150000Y-79400000D01*
%TO.C,K12*%
X95150000Y-61000000D02*
X79550000Y-61000000D01*
X79550000Y-61000000D02*
X79550000Y-45400000D01*
X95150000Y-61000000D02*
X95150000Y-45400000D01*
X79550000Y-45400000D02*
X95150000Y-45400000D01*
%TO.C,K11*%
X78150000Y-61000000D02*
X62550000Y-61000000D01*
X62550000Y-61000000D02*
X62550000Y-45400000D01*
X78150000Y-61000000D02*
X78150000Y-45400000D01*
X62550000Y-45400000D02*
X78150000Y-45400000D01*
%TO.C,K16*%
X95150000Y-78000000D02*
X79550000Y-78000000D01*
X79550000Y-78000000D02*
X79550000Y-62400000D01*
X95150000Y-78000000D02*
X95150000Y-62400000D01*
X79550000Y-62400000D02*
X95150000Y-62400000D01*
%TD*%
%TO.C,ROT3*%
D11*
X2535714Y-87602380D02*
X2202380Y-87126190D01*
X1964285Y-87602380D02*
X1964285Y-86602380D01*
X2345238Y-86602380D01*
X2440476Y-86650000D01*
X2488095Y-86697619D01*
X2535714Y-86792857D01*
X2535714Y-86935714D01*
X2488095Y-87030952D01*
X2440476Y-87078571D01*
X2345238Y-87126190D01*
X1964285Y-87126190D01*
X3107142Y-87602380D02*
X3011904Y-87554761D01*
X2964285Y-87507142D01*
X2916666Y-87411904D01*
X2916666Y-87126190D01*
X2964285Y-87030952D01*
X3011904Y-86983333D01*
X3107142Y-86935714D01*
X3249999Y-86935714D01*
X3345238Y-86983333D01*
X3392857Y-87030952D01*
X3440476Y-87126190D01*
X3440476Y-87411904D01*
X3392857Y-87507142D01*
X3345238Y-87554761D01*
X3249999Y-87602380D01*
X3107142Y-87602380D01*
X3726190Y-86935714D02*
X4107142Y-86935714D01*
X3869047Y-86602380D02*
X3869047Y-87459523D01*
X3916666Y-87554761D01*
X4011904Y-87602380D01*
X4107142Y-87602380D01*
X4869047Y-87602380D02*
X4869047Y-87078571D01*
X4821428Y-86983333D01*
X4726190Y-86935714D01*
X4535714Y-86935714D01*
X4440476Y-86983333D01*
X4869047Y-87554761D02*
X4773809Y-87602380D01*
X4535714Y-87602380D01*
X4440476Y-87554761D01*
X4392857Y-87459523D01*
X4392857Y-87364285D01*
X4440476Y-87269047D01*
X4535714Y-87221428D01*
X4773809Y-87221428D01*
X4869047Y-87173809D01*
X5345238Y-87602380D02*
X5345238Y-86935714D01*
X5345238Y-87126190D02*
X5392857Y-87030952D01*
X5440476Y-86983333D01*
X5535714Y-86935714D01*
X5630952Y-86935714D01*
X5869047Y-86935714D02*
X6107142Y-87602380D01*
X6345238Y-86935714D02*
X6107142Y-87602380D01*
X6011904Y-87840476D01*
X5964285Y-87888095D01*
X5869047Y-87935714D01*
X6488095Y-87697619D02*
X7249999Y-87697619D01*
X7488095Y-87078571D02*
X7821428Y-87078571D01*
X7964285Y-87602380D02*
X7488095Y-87602380D01*
X7488095Y-86602380D01*
X7964285Y-86602380D01*
X8392857Y-86935714D02*
X8392857Y-87602380D01*
X8392857Y-87030952D02*
X8440476Y-86983333D01*
X8535714Y-86935714D01*
X8678571Y-86935714D01*
X8773809Y-86983333D01*
X8821428Y-87078571D01*
X8821428Y-87602380D01*
X9726190Y-87554761D02*
X9630952Y-87602380D01*
X9440476Y-87602380D01*
X9345238Y-87554761D01*
X9297619Y-87507142D01*
X9249999Y-87411904D01*
X9249999Y-87126190D01*
X9297619Y-87030952D01*
X9345238Y-86983333D01*
X9440476Y-86935714D01*
X9630952Y-86935714D01*
X9726190Y-86983333D01*
X10297619Y-87602380D02*
X10202380Y-87554761D01*
X10154761Y-87507142D01*
X10107142Y-87411904D01*
X10107142Y-87126190D01*
X10154761Y-87030952D01*
X10202380Y-86983333D01*
X10297619Y-86935714D01*
X10440476Y-86935714D01*
X10535714Y-86983333D01*
X10583333Y-87030952D01*
X10630952Y-87126190D01*
X10630952Y-87411904D01*
X10583333Y-87507142D01*
X10535714Y-87554761D01*
X10440476Y-87602380D01*
X10297619Y-87602380D01*
X11488095Y-87602380D02*
X11488095Y-86602380D01*
X11488095Y-87554761D02*
X11392857Y-87602380D01*
X11202380Y-87602380D01*
X11107142Y-87554761D01*
X11059523Y-87507142D01*
X11011904Y-87411904D01*
X11011904Y-87126190D01*
X11059523Y-87030952D01*
X11107142Y-86983333D01*
X11202380Y-86935714D01*
X11392857Y-86935714D01*
X11488095Y-86983333D01*
X12345238Y-87554761D02*
X12250000Y-87602380D01*
X12059523Y-87602380D01*
X11964285Y-87554761D01*
X11916666Y-87459523D01*
X11916666Y-87078571D01*
X11964285Y-86983333D01*
X12059523Y-86935714D01*
X12250000Y-86935714D01*
X12345238Y-86983333D01*
X12392857Y-87078571D01*
X12392857Y-87173809D01*
X11916666Y-87269047D01*
X12821428Y-87602380D02*
X12821428Y-86935714D01*
X12821428Y-87126190D02*
X12869047Y-87030952D01*
X12916666Y-86983333D01*
X13011904Y-86935714D01*
X13107142Y-86935714D01*
X13202380Y-87697619D02*
X13964285Y-87697619D01*
X14154761Y-87554761D02*
X14297619Y-87602380D01*
X14535714Y-87602380D01*
X14630952Y-87554761D01*
X14678571Y-87507142D01*
X14726190Y-87411904D01*
X14726190Y-87316666D01*
X14678571Y-87221428D01*
X14630952Y-87173809D01*
X14535714Y-87126190D01*
X14345238Y-87078571D01*
X14249999Y-87030952D01*
X14202380Y-86983333D01*
X14154761Y-86888095D01*
X14154761Y-86792857D01*
X14202380Y-86697619D01*
X14249999Y-86650000D01*
X14345238Y-86602380D01*
X14583333Y-86602380D01*
X14726190Y-86650000D01*
X15059523Y-86935714D02*
X15249999Y-87602380D01*
X15440476Y-87126190D01*
X15630952Y-87602380D01*
X15821428Y-86935714D01*
X16202380Y-87602380D02*
X16202380Y-86935714D01*
X16202380Y-86602380D02*
X16154761Y-86650000D01*
X16202380Y-86697619D01*
X16249999Y-86650000D01*
X16202380Y-86602380D01*
X16202380Y-86697619D01*
X16535714Y-86935714D02*
X16916666Y-86935714D01*
X16678571Y-86602380D02*
X16678571Y-87459523D01*
X16726190Y-87554761D01*
X16821428Y-87602380D01*
X16916666Y-87602380D01*
X17678571Y-87554761D02*
X17583333Y-87602380D01*
X17392857Y-87602380D01*
X17297619Y-87554761D01*
X17249999Y-87507142D01*
X17202380Y-87411904D01*
X17202380Y-87126190D01*
X17249999Y-87030952D01*
X17297619Y-86983333D01*
X17392857Y-86935714D01*
X17583333Y-86935714D01*
X17678571Y-86983333D01*
X18107142Y-87602380D02*
X18107142Y-86602380D01*
X18535714Y-87602380D02*
X18535714Y-87078571D01*
X18488095Y-86983333D01*
X18392857Y-86935714D01*
X18249999Y-86935714D01*
X18154761Y-86983333D01*
X18107142Y-87030952D01*
X12778571Y-83502380D02*
X12445238Y-83026190D01*
X12207142Y-83502380D02*
X12207142Y-82502380D01*
X12588095Y-82502380D01*
X12683333Y-82550000D01*
X12730952Y-82597619D01*
X12778571Y-82692857D01*
X12778571Y-82835714D01*
X12730952Y-82930952D01*
X12683333Y-82978571D01*
X12588095Y-83026190D01*
X12207142Y-83026190D01*
X13397619Y-82502380D02*
X13588095Y-82502380D01*
X13683333Y-82550000D01*
X13778571Y-82645238D01*
X13826190Y-82835714D01*
X13826190Y-83169047D01*
X13778571Y-83359523D01*
X13683333Y-83454761D01*
X13588095Y-83502380D01*
X13397619Y-83502380D01*
X13302380Y-83454761D01*
X13207142Y-83359523D01*
X13159523Y-83169047D01*
X13159523Y-82835714D01*
X13207142Y-82645238D01*
X13302380Y-82550000D01*
X13397619Y-82502380D01*
X14111904Y-82502380D02*
X14683333Y-82502380D01*
X14397619Y-83502380D02*
X14397619Y-82502380D01*
X14921428Y-82502380D02*
X15540476Y-82502380D01*
X15207142Y-82883333D01*
X15350000Y-82883333D01*
X15445238Y-82930952D01*
X15492857Y-82978571D01*
X15540476Y-83073809D01*
X15540476Y-83311904D01*
X15492857Y-83407142D01*
X15445238Y-83454761D01*
X15350000Y-83502380D01*
X15064285Y-83502380D01*
X14969047Y-83454761D01*
X14921428Y-83407142D01*
%TO.C,ROT2*%
X2535714Y-71852380D02*
X2202380Y-71376190D01*
X1964285Y-71852380D02*
X1964285Y-70852380D01*
X2345238Y-70852380D01*
X2440476Y-70900000D01*
X2488095Y-70947619D01*
X2535714Y-71042857D01*
X2535714Y-71185714D01*
X2488095Y-71280952D01*
X2440476Y-71328571D01*
X2345238Y-71376190D01*
X1964285Y-71376190D01*
X3107142Y-71852380D02*
X3011904Y-71804761D01*
X2964285Y-71757142D01*
X2916666Y-71661904D01*
X2916666Y-71376190D01*
X2964285Y-71280952D01*
X3011904Y-71233333D01*
X3107142Y-71185714D01*
X3249999Y-71185714D01*
X3345238Y-71233333D01*
X3392857Y-71280952D01*
X3440476Y-71376190D01*
X3440476Y-71661904D01*
X3392857Y-71757142D01*
X3345238Y-71804761D01*
X3249999Y-71852380D01*
X3107142Y-71852380D01*
X3726190Y-71185714D02*
X4107142Y-71185714D01*
X3869047Y-70852380D02*
X3869047Y-71709523D01*
X3916666Y-71804761D01*
X4011904Y-71852380D01*
X4107142Y-71852380D01*
X4869047Y-71852380D02*
X4869047Y-71328571D01*
X4821428Y-71233333D01*
X4726190Y-71185714D01*
X4535714Y-71185714D01*
X4440476Y-71233333D01*
X4869047Y-71804761D02*
X4773809Y-71852380D01*
X4535714Y-71852380D01*
X4440476Y-71804761D01*
X4392857Y-71709523D01*
X4392857Y-71614285D01*
X4440476Y-71519047D01*
X4535714Y-71471428D01*
X4773809Y-71471428D01*
X4869047Y-71423809D01*
X5345238Y-71852380D02*
X5345238Y-71185714D01*
X5345238Y-71376190D02*
X5392857Y-71280952D01*
X5440476Y-71233333D01*
X5535714Y-71185714D01*
X5630952Y-71185714D01*
X5869047Y-71185714D02*
X6107142Y-71852380D01*
X6345238Y-71185714D02*
X6107142Y-71852380D01*
X6011904Y-72090476D01*
X5964285Y-72138095D01*
X5869047Y-72185714D01*
X6488095Y-71947619D02*
X7249999Y-71947619D01*
X7488095Y-71328571D02*
X7821428Y-71328571D01*
X7964285Y-71852380D02*
X7488095Y-71852380D01*
X7488095Y-70852380D01*
X7964285Y-70852380D01*
X8392857Y-71185714D02*
X8392857Y-71852380D01*
X8392857Y-71280952D02*
X8440476Y-71233333D01*
X8535714Y-71185714D01*
X8678571Y-71185714D01*
X8773809Y-71233333D01*
X8821428Y-71328571D01*
X8821428Y-71852380D01*
X9726190Y-71804761D02*
X9630952Y-71852380D01*
X9440476Y-71852380D01*
X9345238Y-71804761D01*
X9297619Y-71757142D01*
X9249999Y-71661904D01*
X9249999Y-71376190D01*
X9297619Y-71280952D01*
X9345238Y-71233333D01*
X9440476Y-71185714D01*
X9630952Y-71185714D01*
X9726190Y-71233333D01*
X10297619Y-71852380D02*
X10202380Y-71804761D01*
X10154761Y-71757142D01*
X10107142Y-71661904D01*
X10107142Y-71376190D01*
X10154761Y-71280952D01*
X10202380Y-71233333D01*
X10297619Y-71185714D01*
X10440476Y-71185714D01*
X10535714Y-71233333D01*
X10583333Y-71280952D01*
X10630952Y-71376190D01*
X10630952Y-71661904D01*
X10583333Y-71757142D01*
X10535714Y-71804761D01*
X10440476Y-71852380D01*
X10297619Y-71852380D01*
X11488095Y-71852380D02*
X11488095Y-70852380D01*
X11488095Y-71804761D02*
X11392857Y-71852380D01*
X11202380Y-71852380D01*
X11107142Y-71804761D01*
X11059523Y-71757142D01*
X11011904Y-71661904D01*
X11011904Y-71376190D01*
X11059523Y-71280952D01*
X11107142Y-71233333D01*
X11202380Y-71185714D01*
X11392857Y-71185714D01*
X11488095Y-71233333D01*
X12345238Y-71804761D02*
X12250000Y-71852380D01*
X12059523Y-71852380D01*
X11964285Y-71804761D01*
X11916666Y-71709523D01*
X11916666Y-71328571D01*
X11964285Y-71233333D01*
X12059523Y-71185714D01*
X12250000Y-71185714D01*
X12345238Y-71233333D01*
X12392857Y-71328571D01*
X12392857Y-71423809D01*
X11916666Y-71519047D01*
X12821428Y-71852380D02*
X12821428Y-71185714D01*
X12821428Y-71376190D02*
X12869047Y-71280952D01*
X12916666Y-71233333D01*
X13011904Y-71185714D01*
X13107142Y-71185714D01*
X13202380Y-71947619D02*
X13964285Y-71947619D01*
X14154761Y-71804761D02*
X14297619Y-71852380D01*
X14535714Y-71852380D01*
X14630952Y-71804761D01*
X14678571Y-71757142D01*
X14726190Y-71661904D01*
X14726190Y-71566666D01*
X14678571Y-71471428D01*
X14630952Y-71423809D01*
X14535714Y-71376190D01*
X14345238Y-71328571D01*
X14249999Y-71280952D01*
X14202380Y-71233333D01*
X14154761Y-71138095D01*
X14154761Y-71042857D01*
X14202380Y-70947619D01*
X14249999Y-70900000D01*
X14345238Y-70852380D01*
X14583333Y-70852380D01*
X14726190Y-70900000D01*
X15059523Y-71185714D02*
X15249999Y-71852380D01*
X15440476Y-71376190D01*
X15630952Y-71852380D01*
X15821428Y-71185714D01*
X16202380Y-71852380D02*
X16202380Y-71185714D01*
X16202380Y-70852380D02*
X16154761Y-70900000D01*
X16202380Y-70947619D01*
X16249999Y-70900000D01*
X16202380Y-70852380D01*
X16202380Y-70947619D01*
X16535714Y-71185714D02*
X16916666Y-71185714D01*
X16678571Y-70852380D02*
X16678571Y-71709523D01*
X16726190Y-71804761D01*
X16821428Y-71852380D01*
X16916666Y-71852380D01*
X17678571Y-71804761D02*
X17583333Y-71852380D01*
X17392857Y-71852380D01*
X17297619Y-71804761D01*
X17249999Y-71757142D01*
X17202380Y-71661904D01*
X17202380Y-71376190D01*
X17249999Y-71280952D01*
X17297619Y-71233333D01*
X17392857Y-71185714D01*
X17583333Y-71185714D01*
X17678571Y-71233333D01*
X18107142Y-71852380D02*
X18107142Y-70852380D01*
X18535714Y-71852380D02*
X18535714Y-71328571D01*
X18488095Y-71233333D01*
X18392857Y-71185714D01*
X18249999Y-71185714D01*
X18154761Y-71233333D01*
X18107142Y-71280952D01*
X12778571Y-67752380D02*
X12445238Y-67276190D01*
X12207142Y-67752380D02*
X12207142Y-66752380D01*
X12588095Y-66752380D01*
X12683333Y-66800000D01*
X12730952Y-66847619D01*
X12778571Y-66942857D01*
X12778571Y-67085714D01*
X12730952Y-67180952D01*
X12683333Y-67228571D01*
X12588095Y-67276190D01*
X12207142Y-67276190D01*
X13397619Y-66752380D02*
X13588095Y-66752380D01*
X13683333Y-66800000D01*
X13778571Y-66895238D01*
X13826190Y-67085714D01*
X13826190Y-67419047D01*
X13778571Y-67609523D01*
X13683333Y-67704761D01*
X13588095Y-67752380D01*
X13397619Y-67752380D01*
X13302380Y-67704761D01*
X13207142Y-67609523D01*
X13159523Y-67419047D01*
X13159523Y-67085714D01*
X13207142Y-66895238D01*
X13302380Y-66800000D01*
X13397619Y-66752380D01*
X14111904Y-66752380D02*
X14683333Y-66752380D01*
X14397619Y-67752380D02*
X14397619Y-66752380D01*
X14969047Y-66847619D02*
X15016666Y-66800000D01*
X15111904Y-66752380D01*
X15350000Y-66752380D01*
X15445238Y-66800000D01*
X15492857Y-66847619D01*
X15540476Y-66942857D01*
X15540476Y-67038095D01*
X15492857Y-67180952D01*
X14921428Y-67752380D01*
X15540476Y-67752380D01*
%TO.C,ROT1*%
X2535714Y-55602380D02*
X2202380Y-55126190D01*
X1964285Y-55602380D02*
X1964285Y-54602380D01*
X2345238Y-54602380D01*
X2440476Y-54650000D01*
X2488095Y-54697619D01*
X2535714Y-54792857D01*
X2535714Y-54935714D01*
X2488095Y-55030952D01*
X2440476Y-55078571D01*
X2345238Y-55126190D01*
X1964285Y-55126190D01*
X3107142Y-55602380D02*
X3011904Y-55554761D01*
X2964285Y-55507142D01*
X2916666Y-55411904D01*
X2916666Y-55126190D01*
X2964285Y-55030952D01*
X3011904Y-54983333D01*
X3107142Y-54935714D01*
X3249999Y-54935714D01*
X3345238Y-54983333D01*
X3392857Y-55030952D01*
X3440476Y-55126190D01*
X3440476Y-55411904D01*
X3392857Y-55507142D01*
X3345238Y-55554761D01*
X3249999Y-55602380D01*
X3107142Y-55602380D01*
X3726190Y-54935714D02*
X4107142Y-54935714D01*
X3869047Y-54602380D02*
X3869047Y-55459523D01*
X3916666Y-55554761D01*
X4011904Y-55602380D01*
X4107142Y-55602380D01*
X4869047Y-55602380D02*
X4869047Y-55078571D01*
X4821428Y-54983333D01*
X4726190Y-54935714D01*
X4535714Y-54935714D01*
X4440476Y-54983333D01*
X4869047Y-55554761D02*
X4773809Y-55602380D01*
X4535714Y-55602380D01*
X4440476Y-55554761D01*
X4392857Y-55459523D01*
X4392857Y-55364285D01*
X4440476Y-55269047D01*
X4535714Y-55221428D01*
X4773809Y-55221428D01*
X4869047Y-55173809D01*
X5345238Y-55602380D02*
X5345238Y-54935714D01*
X5345238Y-55126190D02*
X5392857Y-55030952D01*
X5440476Y-54983333D01*
X5535714Y-54935714D01*
X5630952Y-54935714D01*
X5869047Y-54935714D02*
X6107142Y-55602380D01*
X6345238Y-54935714D02*
X6107142Y-55602380D01*
X6011904Y-55840476D01*
X5964285Y-55888095D01*
X5869047Y-55935714D01*
X6488095Y-55697619D02*
X7249999Y-55697619D01*
X7488095Y-55078571D02*
X7821428Y-55078571D01*
X7964285Y-55602380D02*
X7488095Y-55602380D01*
X7488095Y-54602380D01*
X7964285Y-54602380D01*
X8392857Y-54935714D02*
X8392857Y-55602380D01*
X8392857Y-55030952D02*
X8440476Y-54983333D01*
X8535714Y-54935714D01*
X8678571Y-54935714D01*
X8773809Y-54983333D01*
X8821428Y-55078571D01*
X8821428Y-55602380D01*
X9726190Y-55554761D02*
X9630952Y-55602380D01*
X9440476Y-55602380D01*
X9345238Y-55554761D01*
X9297619Y-55507142D01*
X9249999Y-55411904D01*
X9249999Y-55126190D01*
X9297619Y-55030952D01*
X9345238Y-54983333D01*
X9440476Y-54935714D01*
X9630952Y-54935714D01*
X9726190Y-54983333D01*
X10297619Y-55602380D02*
X10202380Y-55554761D01*
X10154761Y-55507142D01*
X10107142Y-55411904D01*
X10107142Y-55126190D01*
X10154761Y-55030952D01*
X10202380Y-54983333D01*
X10297619Y-54935714D01*
X10440476Y-54935714D01*
X10535714Y-54983333D01*
X10583333Y-55030952D01*
X10630952Y-55126190D01*
X10630952Y-55411904D01*
X10583333Y-55507142D01*
X10535714Y-55554761D01*
X10440476Y-55602380D01*
X10297619Y-55602380D01*
X11488095Y-55602380D02*
X11488095Y-54602380D01*
X11488095Y-55554761D02*
X11392857Y-55602380D01*
X11202380Y-55602380D01*
X11107142Y-55554761D01*
X11059523Y-55507142D01*
X11011904Y-55411904D01*
X11011904Y-55126190D01*
X11059523Y-55030952D01*
X11107142Y-54983333D01*
X11202380Y-54935714D01*
X11392857Y-54935714D01*
X11488095Y-54983333D01*
X12345238Y-55554761D02*
X12250000Y-55602380D01*
X12059523Y-55602380D01*
X11964285Y-55554761D01*
X11916666Y-55459523D01*
X11916666Y-55078571D01*
X11964285Y-54983333D01*
X12059523Y-54935714D01*
X12250000Y-54935714D01*
X12345238Y-54983333D01*
X12392857Y-55078571D01*
X12392857Y-55173809D01*
X11916666Y-55269047D01*
X12821428Y-55602380D02*
X12821428Y-54935714D01*
X12821428Y-55126190D02*
X12869047Y-55030952D01*
X12916666Y-54983333D01*
X13011904Y-54935714D01*
X13107142Y-54935714D01*
X13202380Y-55697619D02*
X13964285Y-55697619D01*
X14154761Y-55554761D02*
X14297619Y-55602380D01*
X14535714Y-55602380D01*
X14630952Y-55554761D01*
X14678571Y-55507142D01*
X14726190Y-55411904D01*
X14726190Y-55316666D01*
X14678571Y-55221428D01*
X14630952Y-55173809D01*
X14535714Y-55126190D01*
X14345238Y-55078571D01*
X14249999Y-55030952D01*
X14202380Y-54983333D01*
X14154761Y-54888095D01*
X14154761Y-54792857D01*
X14202380Y-54697619D01*
X14249999Y-54650000D01*
X14345238Y-54602380D01*
X14583333Y-54602380D01*
X14726190Y-54650000D01*
X15059523Y-54935714D02*
X15249999Y-55602380D01*
X15440476Y-55126190D01*
X15630952Y-55602380D01*
X15821428Y-54935714D01*
X16202380Y-55602380D02*
X16202380Y-54935714D01*
X16202380Y-54602380D02*
X16154761Y-54650000D01*
X16202380Y-54697619D01*
X16249999Y-54650000D01*
X16202380Y-54602380D01*
X16202380Y-54697619D01*
X16535714Y-54935714D02*
X16916666Y-54935714D01*
X16678571Y-54602380D02*
X16678571Y-55459523D01*
X16726190Y-55554761D01*
X16821428Y-55602380D01*
X16916666Y-55602380D01*
X17678571Y-55554761D02*
X17583333Y-55602380D01*
X17392857Y-55602380D01*
X17297619Y-55554761D01*
X17249999Y-55507142D01*
X17202380Y-55411904D01*
X17202380Y-55126190D01*
X17249999Y-55030952D01*
X17297619Y-54983333D01*
X17392857Y-54935714D01*
X17583333Y-54935714D01*
X17678571Y-54983333D01*
X18107142Y-55602380D02*
X18107142Y-54602380D01*
X18535714Y-55602380D02*
X18535714Y-55078571D01*
X18488095Y-54983333D01*
X18392857Y-54935714D01*
X18249999Y-54935714D01*
X18154761Y-54983333D01*
X18107142Y-55030952D01*
X12778571Y-51502380D02*
X12445238Y-51026190D01*
X12207142Y-51502380D02*
X12207142Y-50502380D01*
X12588095Y-50502380D01*
X12683333Y-50550000D01*
X12730952Y-50597619D01*
X12778571Y-50692857D01*
X12778571Y-50835714D01*
X12730952Y-50930952D01*
X12683333Y-50978571D01*
X12588095Y-51026190D01*
X12207142Y-51026190D01*
X13397619Y-50502380D02*
X13588095Y-50502380D01*
X13683333Y-50550000D01*
X13778571Y-50645238D01*
X13826190Y-50835714D01*
X13826190Y-51169047D01*
X13778571Y-51359523D01*
X13683333Y-51454761D01*
X13588095Y-51502380D01*
X13397619Y-51502380D01*
X13302380Y-51454761D01*
X13207142Y-51359523D01*
X13159523Y-51169047D01*
X13159523Y-50835714D01*
X13207142Y-50645238D01*
X13302380Y-50550000D01*
X13397619Y-50502380D01*
X14111904Y-50502380D02*
X14683333Y-50502380D01*
X14397619Y-51502380D02*
X14397619Y-50502380D01*
X15540476Y-51502380D02*
X14969047Y-51502380D01*
X15254761Y-51502380D02*
X15254761Y-50502380D01*
X15159523Y-50645238D01*
X15064285Y-50740476D01*
X14969047Y-50788095D01*
%TD*%
M02*
