%TF.GenerationSoftware,KiCad,Pcbnew,(5.1.10)-1*%
%TF.CreationDate,2021-08-08T16:05:11+01:00*%
%TF.ProjectId,bongopad,626f6e67-6f70-4616-942e-6b696361645f,1*%
%TF.SameCoordinates,PXb71b00PYb71b00*%
%TF.FileFunction,Legend,Top*%
%TF.FilePolarity,Positive*%
%FSLAX46Y46*%
G04 Gerber Fmt 4.6, Leading zero omitted, Abs format (unit mm)*
G04 Created by KiCad (PCBNEW (5.1.10)-1) date 2021-08-08 16:05:11*
%MOMM*%
%LPD*%
G01*
G04 APERTURE LIST*
%ADD10C,0.300000*%
%ADD11C,0.150000*%
%ADD12C,0.120000*%
%ADD13C,0.127000*%
G04 APERTURE END LIST*
D10*
X11533571Y-27995714D02*
X10033571Y-27995714D01*
X11533571Y-27352857D02*
X10747857Y-27352857D01*
X10605000Y-27424285D01*
X10533571Y-27567142D01*
X10533571Y-27781428D01*
X10605000Y-27924285D01*
X10676428Y-27995714D01*
X10533571Y-26852857D02*
X10533571Y-26281428D01*
X10033571Y-26638571D02*
X11319285Y-26638571D01*
X11462142Y-26567142D01*
X11533571Y-26424285D01*
X11533571Y-26281428D01*
X10533571Y-25995714D02*
X10533571Y-25424285D01*
X10033571Y-25781428D02*
X11319285Y-25781428D01*
X11462142Y-25710000D01*
X11533571Y-25567142D01*
X11533571Y-25424285D01*
X10533571Y-24924285D02*
X12033571Y-24924285D01*
X10605000Y-24924285D02*
X10533571Y-24781428D01*
X10533571Y-24495714D01*
X10605000Y-24352857D01*
X10676428Y-24281428D01*
X10819285Y-24210000D01*
X11247857Y-24210000D01*
X11390714Y-24281428D01*
X11462142Y-24352857D01*
X11533571Y-24495714D01*
X11533571Y-24781428D01*
X11462142Y-24924285D01*
X11462142Y-23638571D02*
X11533571Y-23495714D01*
X11533571Y-23210000D01*
X11462142Y-23067142D01*
X11319285Y-22995714D01*
X11247857Y-22995714D01*
X11105000Y-23067142D01*
X11033571Y-23210000D01*
X11033571Y-23424285D01*
X10962142Y-23567142D01*
X10819285Y-23638571D01*
X10747857Y-23638571D01*
X10605000Y-23567142D01*
X10533571Y-23424285D01*
X10533571Y-23210000D01*
X10605000Y-23067142D01*
X11390714Y-22352857D02*
X11462142Y-22281428D01*
X11533571Y-22352857D01*
X11462142Y-22424285D01*
X11390714Y-22352857D01*
X11533571Y-22352857D01*
X10605000Y-22352857D02*
X10676428Y-22281428D01*
X10747857Y-22352857D01*
X10676428Y-22424285D01*
X10605000Y-22352857D01*
X10747857Y-22352857D01*
X9962142Y-20567142D02*
X11890714Y-21852857D01*
X9962142Y-18995714D02*
X11890714Y-20281428D01*
X11462142Y-18567142D02*
X11533571Y-18424285D01*
X11533571Y-18138571D01*
X11462142Y-17995714D01*
X11319285Y-17924285D01*
X11247857Y-17924285D01*
X11105000Y-17995714D01*
X11033571Y-18138571D01*
X11033571Y-18352857D01*
X10962142Y-18495714D01*
X10819285Y-18567142D01*
X10747857Y-18567142D01*
X10605000Y-18495714D01*
X10533571Y-18352857D01*
X10533571Y-18138571D01*
X10605000Y-17995714D01*
X11390714Y-17281428D02*
X11462142Y-17210000D01*
X11533571Y-17281428D01*
X11462142Y-17352857D01*
X11390714Y-17281428D01*
X11533571Y-17281428D01*
X11533571Y-16567142D02*
X10033571Y-16567142D01*
X10605000Y-16567142D02*
X10533571Y-16424285D01*
X10533571Y-16138571D01*
X10605000Y-15995714D01*
X10676428Y-15924285D01*
X10819285Y-15852857D01*
X11247857Y-15852857D01*
X11390714Y-15924285D01*
X11462142Y-15995714D01*
X11533571Y-16138571D01*
X11533571Y-16424285D01*
X11462142Y-16567142D01*
X11533571Y-14995714D02*
X11462142Y-15138571D01*
X11390714Y-15210000D01*
X11247857Y-15281428D01*
X10819285Y-15281428D01*
X10676428Y-15210000D01*
X10605000Y-15138571D01*
X10533571Y-14995714D01*
X10533571Y-14781428D01*
X10605000Y-14638571D01*
X10676428Y-14567142D01*
X10819285Y-14495714D01*
X11247857Y-14495714D01*
X11390714Y-14567142D01*
X11462142Y-14638571D01*
X11533571Y-14781428D01*
X11533571Y-14995714D01*
X10533571Y-13852857D02*
X11533571Y-13852857D01*
X10676428Y-13852857D02*
X10605000Y-13781428D01*
X10533571Y-13638571D01*
X10533571Y-13424285D01*
X10605000Y-13281428D01*
X10747857Y-13210000D01*
X11533571Y-13210000D01*
X10533571Y-12638571D02*
X10533571Y-11852857D01*
X11533571Y-12638571D01*
X11533571Y-11852857D01*
X11533571Y-11281428D02*
X10533571Y-11281428D01*
X10033571Y-11281428D02*
X10105000Y-11352857D01*
X10176428Y-11281428D01*
X10105000Y-11210000D01*
X10033571Y-11281428D01*
X10176428Y-11281428D01*
X11390714Y-10567142D02*
X11462142Y-10495714D01*
X11533571Y-10567142D01*
X11462142Y-10638571D01*
X11390714Y-10567142D01*
X11533571Y-10567142D01*
X11462142Y-9924285D02*
X11533571Y-9781428D01*
X11533571Y-9495714D01*
X11462142Y-9352857D01*
X11319285Y-9281428D01*
X11247857Y-9281428D01*
X11105000Y-9352857D01*
X11033571Y-9495714D01*
X11033571Y-9710000D01*
X10962142Y-9852857D01*
X10819285Y-9924285D01*
X10747857Y-9924285D01*
X10605000Y-9852857D01*
X10533571Y-9710000D01*
X10533571Y-9495714D01*
X10605000Y-9352857D01*
X11533571Y-8638571D02*
X10033571Y-8638571D01*
X11533571Y-7995714D02*
X10747857Y-7995714D01*
X10605000Y-8067142D01*
X10533571Y-8210000D01*
X10533571Y-8424285D01*
X10605000Y-8567142D01*
X10676428Y-8638571D01*
X9962142Y-6210000D02*
X11890714Y-7495714D01*
X14083571Y-22281428D02*
X12583571Y-22281428D01*
X13155000Y-22281428D02*
X13083571Y-22138571D01*
X13083571Y-21852857D01*
X13155000Y-21710000D01*
X13226428Y-21638571D01*
X13369285Y-21567142D01*
X13797857Y-21567142D01*
X13940714Y-21638571D01*
X14012142Y-21710000D01*
X14083571Y-21852857D01*
X14083571Y-22138571D01*
X14012142Y-22281428D01*
X14083571Y-20710000D02*
X14012142Y-20852857D01*
X13940714Y-20924285D01*
X13797857Y-20995714D01*
X13369285Y-20995714D01*
X13226428Y-20924285D01*
X13155000Y-20852857D01*
X13083571Y-20710000D01*
X13083571Y-20495714D01*
X13155000Y-20352857D01*
X13226428Y-20281428D01*
X13369285Y-20210000D01*
X13797857Y-20210000D01*
X13940714Y-20281428D01*
X14012142Y-20352857D01*
X14083571Y-20495714D01*
X14083571Y-20710000D01*
X13083571Y-19567142D02*
X14083571Y-19567142D01*
X13226428Y-19567142D02*
X13155000Y-19495714D01*
X13083571Y-19352857D01*
X13083571Y-19138571D01*
X13155000Y-18995714D01*
X13297857Y-18924285D01*
X14083571Y-18924285D01*
X13083571Y-17567142D02*
X14297857Y-17567142D01*
X14440714Y-17638571D01*
X14512142Y-17710000D01*
X14583571Y-17852857D01*
X14583571Y-18067142D01*
X14512142Y-18210000D01*
X14012142Y-17567142D02*
X14083571Y-17710000D01*
X14083571Y-17995714D01*
X14012142Y-18138571D01*
X13940714Y-18210000D01*
X13797857Y-18281428D01*
X13369285Y-18281428D01*
X13226428Y-18210000D01*
X13155000Y-18138571D01*
X13083571Y-17995714D01*
X13083571Y-17710000D01*
X13155000Y-17567142D01*
X14083571Y-16638571D02*
X14012142Y-16781428D01*
X13940714Y-16852857D01*
X13797857Y-16924285D01*
X13369285Y-16924285D01*
X13226428Y-16852857D01*
X13155000Y-16781428D01*
X13083571Y-16638571D01*
X13083571Y-16424285D01*
X13155000Y-16281428D01*
X13226428Y-16210000D01*
X13369285Y-16138571D01*
X13797857Y-16138571D01*
X13940714Y-16210000D01*
X14012142Y-16281428D01*
X14083571Y-16424285D01*
X14083571Y-16638571D01*
X13083571Y-15495714D02*
X14583571Y-15495714D01*
X13155000Y-15495714D02*
X13083571Y-15352857D01*
X13083571Y-15067142D01*
X13155000Y-14924285D01*
X13226428Y-14852857D01*
X13369285Y-14781428D01*
X13797857Y-14781428D01*
X13940714Y-14852857D01*
X14012142Y-14924285D01*
X14083571Y-15067142D01*
X14083571Y-15352857D01*
X14012142Y-15495714D01*
X14083571Y-13495714D02*
X13297857Y-13495714D01*
X13155000Y-13567142D01*
X13083571Y-13710000D01*
X13083571Y-13995714D01*
X13155000Y-14138571D01*
X14012142Y-13495714D02*
X14083571Y-13638571D01*
X14083571Y-13995714D01*
X14012142Y-14138571D01*
X13869285Y-14210000D01*
X13726428Y-14210000D01*
X13583571Y-14138571D01*
X13512142Y-13995714D01*
X13512142Y-13638571D01*
X13440714Y-13495714D01*
X14083571Y-12138571D02*
X12583571Y-12138571D01*
X14012142Y-12138571D02*
X14083571Y-12281428D01*
X14083571Y-12567142D01*
X14012142Y-12710000D01*
X13940714Y-12781428D01*
X13797857Y-12852857D01*
X13369285Y-12852857D01*
X13226428Y-12781428D01*
X13155000Y-12710000D01*
X13083571Y-12567142D01*
X13083571Y-12281428D01*
X13155000Y-12138571D01*
X6458571Y-22868571D02*
X4958571Y-22868571D01*
X5530000Y-22868571D02*
X5458571Y-22725714D01*
X5458571Y-22440000D01*
X5530000Y-22297142D01*
X5601428Y-22225714D01*
X5744285Y-22154285D01*
X6172857Y-22154285D01*
X6315714Y-22225714D01*
X6387142Y-22297142D01*
X6458571Y-22440000D01*
X6458571Y-22725714D01*
X6387142Y-22868571D01*
X6458571Y-21297142D02*
X6387142Y-21440000D01*
X6315714Y-21511428D01*
X6172857Y-21582857D01*
X5744285Y-21582857D01*
X5601428Y-21511428D01*
X5530000Y-21440000D01*
X5458571Y-21297142D01*
X5458571Y-21082857D01*
X5530000Y-20940000D01*
X5601428Y-20868571D01*
X5744285Y-20797142D01*
X6172857Y-20797142D01*
X6315714Y-20868571D01*
X6387142Y-20940000D01*
X6458571Y-21082857D01*
X6458571Y-21297142D01*
X5458571Y-20154285D02*
X6458571Y-20154285D01*
X5601428Y-20154285D02*
X5530000Y-20082857D01*
X5458571Y-19940000D01*
X5458571Y-19725714D01*
X5530000Y-19582857D01*
X5672857Y-19511428D01*
X6458571Y-19511428D01*
X5458571Y-18154285D02*
X6672857Y-18154285D01*
X6815714Y-18225714D01*
X6887142Y-18297142D01*
X6958571Y-18440000D01*
X6958571Y-18654285D01*
X6887142Y-18797142D01*
X6387142Y-18154285D02*
X6458571Y-18297142D01*
X6458571Y-18582857D01*
X6387142Y-18725714D01*
X6315714Y-18797142D01*
X6172857Y-18868571D01*
X5744285Y-18868571D01*
X5601428Y-18797142D01*
X5530000Y-18725714D01*
X5458571Y-18582857D01*
X5458571Y-18297142D01*
X5530000Y-18154285D01*
X6458571Y-17225714D02*
X6387142Y-17368571D01*
X6315714Y-17440000D01*
X6172857Y-17511428D01*
X5744285Y-17511428D01*
X5601428Y-17440000D01*
X5530000Y-17368571D01*
X5458571Y-17225714D01*
X5458571Y-17011428D01*
X5530000Y-16868571D01*
X5601428Y-16797142D01*
X5744285Y-16725714D01*
X6172857Y-16725714D01*
X6315714Y-16797142D01*
X6387142Y-16868571D01*
X6458571Y-17011428D01*
X6458571Y-17225714D01*
X5458571Y-16082857D02*
X6958571Y-16082857D01*
X5530000Y-16082857D02*
X5458571Y-15940000D01*
X5458571Y-15654285D01*
X5530000Y-15511428D01*
X5601428Y-15440000D01*
X5744285Y-15368571D01*
X6172857Y-15368571D01*
X6315714Y-15440000D01*
X6387142Y-15511428D01*
X6458571Y-15654285D01*
X6458571Y-15940000D01*
X6387142Y-16082857D01*
X6458571Y-14082857D02*
X5672857Y-14082857D01*
X5530000Y-14154285D01*
X5458571Y-14297142D01*
X5458571Y-14582857D01*
X5530000Y-14725714D01*
X6387142Y-14082857D02*
X6458571Y-14225714D01*
X6458571Y-14582857D01*
X6387142Y-14725714D01*
X6244285Y-14797142D01*
X6101428Y-14797142D01*
X5958571Y-14725714D01*
X5887142Y-14582857D01*
X5887142Y-14225714D01*
X5815714Y-14082857D01*
X6458571Y-12725714D02*
X4958571Y-12725714D01*
X6387142Y-12725714D02*
X6458571Y-12868571D01*
X6458571Y-13154285D01*
X6387142Y-13297142D01*
X6315714Y-13368571D01*
X6172857Y-13440000D01*
X5744285Y-13440000D01*
X5601428Y-13368571D01*
X5530000Y-13297142D01*
X5458571Y-13154285D01*
X5458571Y-12868571D01*
X5530000Y-12725714D01*
X5458571Y-11011428D02*
X6458571Y-10654285D01*
X5458571Y-10297142D01*
X6458571Y-8940000D02*
X6458571Y-9797142D01*
X6458571Y-9368571D02*
X4958571Y-9368571D01*
X5172857Y-9511428D01*
X5315714Y-9654285D01*
X5387142Y-9797142D01*
D11*
X8328095Y-2692380D02*
X8328095Y-3501904D01*
X8375714Y-3597142D01*
X8423333Y-3644761D01*
X8518571Y-3692380D01*
X8709047Y-3692380D01*
X8804285Y-3644761D01*
X8851904Y-3597142D01*
X8899523Y-3501904D01*
X8899523Y-2692380D01*
X9328095Y-3644761D02*
X9470952Y-3692380D01*
X9709047Y-3692380D01*
X9804285Y-3644761D01*
X9851904Y-3597142D01*
X9899523Y-3501904D01*
X9899523Y-3406666D01*
X9851904Y-3311428D01*
X9804285Y-3263809D01*
X9709047Y-3216190D01*
X9518571Y-3168571D01*
X9423333Y-3120952D01*
X9375714Y-3073333D01*
X9328095Y-2978095D01*
X9328095Y-2882857D01*
X9375714Y-2787619D01*
X9423333Y-2740000D01*
X9518571Y-2692380D01*
X9756666Y-2692380D01*
X9899523Y-2740000D01*
X10661428Y-3168571D02*
X10804285Y-3216190D01*
X10851904Y-3263809D01*
X10899523Y-3359047D01*
X10899523Y-3501904D01*
X10851904Y-3597142D01*
X10804285Y-3644761D01*
X10709047Y-3692380D01*
X10328095Y-3692380D01*
X10328095Y-2692380D01*
X10661428Y-2692380D01*
X10756666Y-2740000D01*
X10804285Y-2787619D01*
X10851904Y-2882857D01*
X10851904Y-2978095D01*
X10804285Y-3073333D01*
X10756666Y-3120952D01*
X10661428Y-3168571D01*
X10328095Y-3168571D01*
D12*
%TO.C,J2*%
X5270000Y-34214000D02*
X5270000Y-35992000D01*
X5270000Y-35992000D02*
X5270000Y-36246000D01*
X5270000Y-36246000D02*
X5016000Y-36500000D01*
X5016000Y-36500000D02*
X5270000Y-36754000D01*
X5270000Y-36754000D02*
X5270000Y-38786000D01*
X5270000Y-38786000D02*
X5016000Y-39040000D01*
X5270000Y-34214000D02*
X5016000Y-33960000D01*
X5016000Y-33960000D02*
X2984000Y-33960000D01*
X2730000Y-34214000D02*
X2984000Y-33960000D01*
X2984000Y-36500000D02*
X2730000Y-36246000D01*
X2730000Y-36754000D02*
X2984000Y-36500000D01*
X2730000Y-38786000D02*
X2730000Y-36754000D01*
X2730000Y-34214000D02*
X2984000Y-33960000D01*
X2730000Y-36246000D02*
X2730000Y-34214000D01*
X2984000Y-39040000D02*
X2730000Y-38786000D01*
X5016000Y-39040000D02*
X2984000Y-39040000D01*
%TO.C,ROT3*%
X13250000Y-79250000D02*
G75*
G03*
X13250000Y-79250000I-3000000J0D01*
G01*
X12250000Y-73350000D02*
X16350000Y-73350000D01*
X16350000Y-85150000D02*
X12250000Y-85150000D01*
X8250000Y-85150000D02*
X4150000Y-85150000D01*
X8250000Y-73350000D02*
X4150000Y-73350000D01*
X4150000Y-73350000D02*
X4150000Y-85150000D01*
X2750000Y-75450000D02*
X2450000Y-75150000D01*
X2450000Y-75150000D02*
X3050000Y-75150000D01*
X3050000Y-75150000D02*
X2750000Y-75450000D01*
X16350000Y-73350000D02*
X16350000Y-75750000D01*
X16350000Y-77950000D02*
X16350000Y-80550000D01*
X16350000Y-82750000D02*
X16350000Y-85150000D01*
X10250000Y-78750000D02*
X10250000Y-79750000D01*
X9750000Y-79250000D02*
X10750000Y-79250000D01*
%TO.C,ROT2*%
X13250000Y-63500000D02*
G75*
G03*
X13250000Y-63500000I-3000000J0D01*
G01*
X12250000Y-57600000D02*
X16350000Y-57600000D01*
X16350000Y-69400000D02*
X12250000Y-69400000D01*
X8250000Y-69400000D02*
X4150000Y-69400000D01*
X8250000Y-57600000D02*
X4150000Y-57600000D01*
X4150000Y-57600000D02*
X4150000Y-69400000D01*
X2750000Y-59700000D02*
X2450000Y-59400000D01*
X2450000Y-59400000D02*
X3050000Y-59400000D01*
X3050000Y-59400000D02*
X2750000Y-59700000D01*
X16350000Y-57600000D02*
X16350000Y-60000000D01*
X16350000Y-62200000D02*
X16350000Y-64800000D01*
X16350000Y-67000000D02*
X16350000Y-69400000D01*
X10250000Y-63000000D02*
X10250000Y-64000000D01*
X9750000Y-63500000D02*
X10750000Y-63500000D01*
%TO.C,ROT1*%
X13250000Y-47250000D02*
G75*
G03*
X13250000Y-47250000I-3000000J0D01*
G01*
X12250000Y-41350000D02*
X16350000Y-41350000D01*
X16350000Y-53150000D02*
X12250000Y-53150000D01*
X8250000Y-53150000D02*
X4150000Y-53150000D01*
X8250000Y-41350000D02*
X4150000Y-41350000D01*
X4150000Y-41350000D02*
X4150000Y-53150000D01*
X2750000Y-43450000D02*
X2450000Y-43150000D01*
X2450000Y-43150000D02*
X3050000Y-43150000D01*
X3050000Y-43150000D02*
X2750000Y-43450000D01*
X16350000Y-41350000D02*
X16350000Y-43750000D01*
X16350000Y-45950000D02*
X16350000Y-48550000D01*
X16350000Y-50750000D02*
X16350000Y-53150000D01*
X10250000Y-46750000D02*
X10250000Y-47750000D01*
X9750000Y-47250000D02*
X10750000Y-47250000D01*
%TO.C,J1*%
X18080000Y-37266000D02*
X18080000Y-35234000D01*
X13000000Y-37266000D02*
X12746000Y-37520000D01*
X15286000Y-37520000D02*
X13254000Y-37520000D01*
X10206000Y-37520000D02*
X8174000Y-37520000D01*
X8174000Y-37520000D02*
X7920000Y-37266000D01*
X12746000Y-37520000D02*
X10714000Y-37520000D01*
X18080000Y-37266000D02*
X17826000Y-37520000D01*
X15540000Y-37266000D02*
X15286000Y-37520000D01*
X10714000Y-37520000D02*
X10460000Y-37266000D01*
X10460000Y-37266000D02*
X10206000Y-37520000D01*
X17826000Y-37520000D02*
X15794000Y-37520000D01*
X13254000Y-37520000D02*
X13000000Y-37266000D01*
X15794000Y-37520000D02*
X15540000Y-37266000D01*
X18080000Y-37266000D02*
X17826000Y-37520000D01*
X8174000Y-37520000D02*
X7920000Y-37266000D01*
X7920000Y-35234000D02*
X7920000Y-37266000D01*
X8174000Y-34980000D02*
X7920000Y-35234000D01*
X15794000Y-34980000D02*
X17826000Y-34980000D01*
X17826000Y-34980000D02*
X18080000Y-35234000D01*
X15540000Y-35234000D02*
X15794000Y-34980000D01*
X15286000Y-34980000D02*
X15540000Y-35234000D01*
X13254000Y-34980000D02*
X15286000Y-34980000D01*
X13000000Y-35234000D02*
X13254000Y-34980000D01*
X12746000Y-34980000D02*
X13000000Y-35234000D01*
X10714000Y-34980000D02*
X12746000Y-34980000D01*
X10460000Y-35234000D02*
X10714000Y-34980000D01*
X10206000Y-34980000D02*
X10460000Y-35234000D01*
X9952000Y-34980000D02*
X10206000Y-34980000D01*
X8174000Y-34980000D02*
X9952000Y-34980000D01*
%TO.C,MCU1*%
D13*
X8632400Y-1535771D02*
X8632400Y-926171D01*
X8835600Y-1361600D01*
X9038800Y-926171D01*
X9038800Y-1535771D01*
X9677428Y-1477714D02*
X9648400Y-1506742D01*
X9561314Y-1535771D01*
X9503257Y-1535771D01*
X9416171Y-1506742D01*
X9358114Y-1448685D01*
X9329085Y-1390628D01*
X9300057Y-1274514D01*
X9300057Y-1187428D01*
X9329085Y-1071314D01*
X9358114Y-1013257D01*
X9416171Y-955200D01*
X9503257Y-926171D01*
X9561314Y-926171D01*
X9648400Y-955200D01*
X9677428Y-984228D01*
X9938685Y-926171D02*
X9938685Y-1419657D01*
X9967714Y-1477714D01*
X9996742Y-1506742D01*
X10054800Y-1535771D01*
X10170914Y-1535771D01*
X10228971Y-1506742D01*
X10258000Y-1477714D01*
X10287028Y-1419657D01*
X10287028Y-926171D01*
X10896628Y-1535771D02*
X10548285Y-1535771D01*
X10722457Y-1535771D02*
X10722457Y-926171D01*
X10664400Y-1013257D01*
X10606342Y-1071314D01*
X10548285Y-1100342D01*
X5061885Y-32015771D02*
X5061885Y-31406171D01*
X5294114Y-31406171D01*
X5352171Y-31435200D01*
X5381200Y-31464228D01*
X5410228Y-31522285D01*
X5410228Y-31609371D01*
X5381200Y-31667428D01*
X5352171Y-31696457D01*
X5294114Y-31725485D01*
X5061885Y-31725485D01*
X5671485Y-32015771D02*
X5671485Y-31609371D01*
X5671485Y-31725485D02*
X5700514Y-31667428D01*
X5729542Y-31638400D01*
X5787600Y-31609371D01*
X5845657Y-31609371D01*
X6135942Y-32015771D02*
X6077885Y-31986742D01*
X6048857Y-31957714D01*
X6019828Y-31899657D01*
X6019828Y-31725485D01*
X6048857Y-31667428D01*
X6077885Y-31638400D01*
X6135942Y-31609371D01*
X6223028Y-31609371D01*
X6281085Y-31638400D01*
X6310114Y-31667428D01*
X6339142Y-31725485D01*
X6339142Y-31899657D01*
X6310114Y-31957714D01*
X6281085Y-31986742D01*
X6223028Y-32015771D01*
X6135942Y-32015771D01*
X7064857Y-32015771D02*
X7064857Y-31406171D01*
X7268057Y-31841600D01*
X7471257Y-31406171D01*
X7471257Y-32015771D01*
X7761542Y-32015771D02*
X7761542Y-31609371D01*
X7761542Y-31406171D02*
X7732514Y-31435200D01*
X7761542Y-31464228D01*
X7790571Y-31435200D01*
X7761542Y-31406171D01*
X7761542Y-31464228D01*
X8313085Y-31986742D02*
X8255028Y-32015771D01*
X8138914Y-32015771D01*
X8080857Y-31986742D01*
X8051828Y-31957714D01*
X8022800Y-31899657D01*
X8022800Y-31725485D01*
X8051828Y-31667428D01*
X8080857Y-31638400D01*
X8138914Y-31609371D01*
X8255028Y-31609371D01*
X8313085Y-31638400D01*
X8574342Y-32015771D02*
X8574342Y-31609371D01*
X8574342Y-31725485D02*
X8603371Y-31667428D01*
X8632400Y-31638400D01*
X8690457Y-31609371D01*
X8748514Y-31609371D01*
X9038800Y-32015771D02*
X8980742Y-31986742D01*
X8951714Y-31957714D01*
X8922685Y-31899657D01*
X8922685Y-31725485D01*
X8951714Y-31667428D01*
X8980742Y-31638400D01*
X9038800Y-31609371D01*
X9125885Y-31609371D01*
X9183942Y-31638400D01*
X9212971Y-31667428D01*
X9242000Y-31725485D01*
X9242000Y-31899657D01*
X9212971Y-31957714D01*
X9183942Y-31986742D01*
X9125885Y-32015771D01*
X9038800Y-32015771D01*
X10141885Y-32248000D02*
X10112857Y-32218971D01*
X10054800Y-32131885D01*
X10025771Y-32073828D01*
X9996742Y-31986742D01*
X9967714Y-31841600D01*
X9967714Y-31725485D01*
X9996742Y-31580342D01*
X10025771Y-31493257D01*
X10054800Y-31435200D01*
X10112857Y-31348114D01*
X10141885Y-31319085D01*
X10490228Y-31406171D02*
X10606342Y-31406171D01*
X10664400Y-31435200D01*
X10722457Y-31493257D01*
X10751485Y-31609371D01*
X10751485Y-31812571D01*
X10722457Y-31928685D01*
X10664400Y-31986742D01*
X10606342Y-32015771D01*
X10490228Y-32015771D01*
X10432171Y-31986742D01*
X10374114Y-31928685D01*
X10345085Y-31812571D01*
X10345085Y-31609371D01*
X10374114Y-31493257D01*
X10432171Y-31435200D01*
X10490228Y-31406171D01*
X11012742Y-32015771D02*
X11012742Y-31609371D01*
X11012742Y-31725485D02*
X11041771Y-31667428D01*
X11070800Y-31638400D01*
X11128857Y-31609371D01*
X11186914Y-31609371D01*
X12115828Y-31986742D02*
X12057771Y-32015771D01*
X11941657Y-32015771D01*
X11883600Y-31986742D01*
X11854571Y-31957714D01*
X11825542Y-31899657D01*
X11825542Y-31725485D01*
X11854571Y-31667428D01*
X11883600Y-31638400D01*
X11941657Y-31609371D01*
X12057771Y-31609371D01*
X12115828Y-31638400D01*
X12464171Y-32015771D02*
X12406114Y-31986742D01*
X12377085Y-31928685D01*
X12377085Y-31406171D01*
X12783485Y-32015771D02*
X12725428Y-31986742D01*
X12696400Y-31957714D01*
X12667371Y-31899657D01*
X12667371Y-31725485D01*
X12696400Y-31667428D01*
X12725428Y-31638400D01*
X12783485Y-31609371D01*
X12870571Y-31609371D01*
X12928628Y-31638400D01*
X12957657Y-31667428D01*
X12986685Y-31725485D01*
X12986685Y-31899657D01*
X12957657Y-31957714D01*
X12928628Y-31986742D01*
X12870571Y-32015771D01*
X12783485Y-32015771D01*
X13247942Y-31609371D02*
X13247942Y-32015771D01*
X13247942Y-31667428D02*
X13276971Y-31638400D01*
X13335028Y-31609371D01*
X13422114Y-31609371D01*
X13480171Y-31638400D01*
X13509200Y-31696457D01*
X13509200Y-32015771D01*
X14031714Y-31986742D02*
X13973657Y-32015771D01*
X13857542Y-32015771D01*
X13799485Y-31986742D01*
X13770457Y-31928685D01*
X13770457Y-31696457D01*
X13799485Y-31638400D01*
X13857542Y-31609371D01*
X13973657Y-31609371D01*
X14031714Y-31638400D01*
X14060742Y-31696457D01*
X14060742Y-31754514D01*
X13770457Y-31812571D01*
X14263942Y-32248000D02*
X14292971Y-32218971D01*
X14351028Y-32131885D01*
X14380057Y-32073828D01*
X14409085Y-31986742D01*
X14438114Y-31841600D01*
X14438114Y-31725485D01*
X14409085Y-31580342D01*
X14380057Y-31493257D01*
X14351028Y-31435200D01*
X14292971Y-31348114D01*
X14263942Y-31319085D01*
%TO.C,J2*%
D11*
X652380Y-36833333D02*
X1366666Y-36833333D01*
X1509523Y-36880952D01*
X1604761Y-36976190D01*
X1652380Y-37119047D01*
X1652380Y-37214285D01*
X747619Y-36404761D02*
X700000Y-36357142D01*
X652380Y-36261904D01*
X652380Y-36023809D01*
X700000Y-35928571D01*
X747619Y-35880952D01*
X842857Y-35833333D01*
X938095Y-35833333D01*
X1080952Y-35880952D01*
X1652380Y-36452380D01*
X1652380Y-35833333D01*
X6952380Y-37738095D02*
X6476190Y-38071428D01*
X6952380Y-38309523D02*
X5952380Y-38309523D01*
X5952380Y-37928571D01*
X6000000Y-37833333D01*
X6047619Y-37785714D01*
X6142857Y-37738095D01*
X6285714Y-37738095D01*
X6380952Y-37785714D01*
X6428571Y-37833333D01*
X6476190Y-37928571D01*
X6476190Y-38309523D01*
X6904761Y-36928571D02*
X6952380Y-37023809D01*
X6952380Y-37214285D01*
X6904761Y-37309523D01*
X6809523Y-37357142D01*
X6428571Y-37357142D01*
X6333333Y-37309523D01*
X6285714Y-37214285D01*
X6285714Y-37023809D01*
X6333333Y-36928571D01*
X6428571Y-36880952D01*
X6523809Y-36880952D01*
X6619047Y-37357142D01*
X6904761Y-36500000D02*
X6952380Y-36404761D01*
X6952380Y-36214285D01*
X6904761Y-36119047D01*
X6809523Y-36071428D01*
X6761904Y-36071428D01*
X6666666Y-36119047D01*
X6619047Y-36214285D01*
X6619047Y-36357142D01*
X6571428Y-36452380D01*
X6476190Y-36500000D01*
X6428571Y-36500000D01*
X6333333Y-36452380D01*
X6285714Y-36357142D01*
X6285714Y-36214285D01*
X6333333Y-36119047D01*
X6904761Y-35261904D02*
X6952380Y-35357142D01*
X6952380Y-35547619D01*
X6904761Y-35642857D01*
X6809523Y-35690476D01*
X6428571Y-35690476D01*
X6333333Y-35642857D01*
X6285714Y-35547619D01*
X6285714Y-35357142D01*
X6333333Y-35261904D01*
X6428571Y-35214285D01*
X6523809Y-35214285D01*
X6619047Y-35690476D01*
X6285714Y-34928571D02*
X6285714Y-34547619D01*
X5952380Y-34785714D02*
X6809523Y-34785714D01*
X6904761Y-34738095D01*
X6952380Y-34642857D01*
X6952380Y-34547619D01*
%TO.C,ROT3*%
X12678571Y-83452380D02*
X12345238Y-82976190D01*
X12107142Y-83452380D02*
X12107142Y-82452380D01*
X12488095Y-82452380D01*
X12583333Y-82500000D01*
X12630952Y-82547619D01*
X12678571Y-82642857D01*
X12678571Y-82785714D01*
X12630952Y-82880952D01*
X12583333Y-82928571D01*
X12488095Y-82976190D01*
X12107142Y-82976190D01*
X13297619Y-82452380D02*
X13488095Y-82452380D01*
X13583333Y-82500000D01*
X13678571Y-82595238D01*
X13726190Y-82785714D01*
X13726190Y-83119047D01*
X13678571Y-83309523D01*
X13583333Y-83404761D01*
X13488095Y-83452380D01*
X13297619Y-83452380D01*
X13202380Y-83404761D01*
X13107142Y-83309523D01*
X13059523Y-83119047D01*
X13059523Y-82785714D01*
X13107142Y-82595238D01*
X13202380Y-82500000D01*
X13297619Y-82452380D01*
X14011904Y-82452380D02*
X14583333Y-82452380D01*
X14297619Y-83452380D02*
X14297619Y-82452380D01*
X14821428Y-82452380D02*
X15440476Y-82452380D01*
X15107142Y-82833333D01*
X15250000Y-82833333D01*
X15345238Y-82880952D01*
X15392857Y-82928571D01*
X15440476Y-83023809D01*
X15440476Y-83261904D01*
X15392857Y-83357142D01*
X15345238Y-83404761D01*
X15250000Y-83452380D01*
X14964285Y-83452380D01*
X14869047Y-83404761D01*
X14821428Y-83357142D01*
%TO.C,ROT2*%
X12678571Y-67702380D02*
X12345238Y-67226190D01*
X12107142Y-67702380D02*
X12107142Y-66702380D01*
X12488095Y-66702380D01*
X12583333Y-66750000D01*
X12630952Y-66797619D01*
X12678571Y-66892857D01*
X12678571Y-67035714D01*
X12630952Y-67130952D01*
X12583333Y-67178571D01*
X12488095Y-67226190D01*
X12107142Y-67226190D01*
X13297619Y-66702380D02*
X13488095Y-66702380D01*
X13583333Y-66750000D01*
X13678571Y-66845238D01*
X13726190Y-67035714D01*
X13726190Y-67369047D01*
X13678571Y-67559523D01*
X13583333Y-67654761D01*
X13488095Y-67702380D01*
X13297619Y-67702380D01*
X13202380Y-67654761D01*
X13107142Y-67559523D01*
X13059523Y-67369047D01*
X13059523Y-67035714D01*
X13107142Y-66845238D01*
X13202380Y-66750000D01*
X13297619Y-66702380D01*
X14011904Y-66702380D02*
X14583333Y-66702380D01*
X14297619Y-67702380D02*
X14297619Y-66702380D01*
X14869047Y-66797619D02*
X14916666Y-66750000D01*
X15011904Y-66702380D01*
X15250000Y-66702380D01*
X15345238Y-66750000D01*
X15392857Y-66797619D01*
X15440476Y-66892857D01*
X15440476Y-66988095D01*
X15392857Y-67130952D01*
X14821428Y-67702380D01*
X15440476Y-67702380D01*
%TO.C,ROT1*%
X12678571Y-51452380D02*
X12345238Y-50976190D01*
X12107142Y-51452380D02*
X12107142Y-50452380D01*
X12488095Y-50452380D01*
X12583333Y-50500000D01*
X12630952Y-50547619D01*
X12678571Y-50642857D01*
X12678571Y-50785714D01*
X12630952Y-50880952D01*
X12583333Y-50928571D01*
X12488095Y-50976190D01*
X12107142Y-50976190D01*
X13297619Y-50452380D02*
X13488095Y-50452380D01*
X13583333Y-50500000D01*
X13678571Y-50595238D01*
X13726190Y-50785714D01*
X13726190Y-51119047D01*
X13678571Y-51309523D01*
X13583333Y-51404761D01*
X13488095Y-51452380D01*
X13297619Y-51452380D01*
X13202380Y-51404761D01*
X13107142Y-51309523D01*
X13059523Y-51119047D01*
X13059523Y-50785714D01*
X13107142Y-50595238D01*
X13202380Y-50500000D01*
X13297619Y-50452380D01*
X14011904Y-50452380D02*
X14583333Y-50452380D01*
X14297619Y-51452380D02*
X14297619Y-50452380D01*
X15440476Y-51452380D02*
X14869047Y-51452380D01*
X15154761Y-51452380D02*
X15154761Y-50452380D01*
X15059523Y-50595238D01*
X14964285Y-50690476D01*
X14869047Y-50738095D01*
%TO.C,J1*%
X12666666Y-38242380D02*
X12666666Y-38956666D01*
X12619047Y-39099523D01*
X12523809Y-39194761D01*
X12380952Y-39242380D01*
X12285714Y-39242380D01*
X13666666Y-39242380D02*
X13095238Y-39242380D01*
X13380952Y-39242380D02*
X13380952Y-38242380D01*
X13285714Y-38385238D01*
X13190476Y-38480476D01*
X13095238Y-38528095D01*
X11547619Y-33162380D02*
X11738095Y-33162380D01*
X11833333Y-33210000D01*
X11928571Y-33305238D01*
X11976190Y-33495714D01*
X11976190Y-33829047D01*
X11928571Y-34019523D01*
X11833333Y-34114761D01*
X11738095Y-34162380D01*
X11547619Y-34162380D01*
X11452380Y-34114761D01*
X11357142Y-34019523D01*
X11309523Y-33829047D01*
X11309523Y-33495714D01*
X11357142Y-33305238D01*
X11452380Y-33210000D01*
X11547619Y-33162380D01*
X12880952Y-34162380D02*
X12404761Y-34162380D01*
X12404761Y-33162380D01*
X13214285Y-33638571D02*
X13547619Y-33638571D01*
X13690476Y-34162380D02*
X13214285Y-34162380D01*
X13214285Y-33162380D01*
X13690476Y-33162380D01*
X14119047Y-34162380D02*
X14119047Y-33162380D01*
X14357142Y-33162380D01*
X14500000Y-33210000D01*
X14595238Y-33305238D01*
X14642857Y-33400476D01*
X14690476Y-33590952D01*
X14690476Y-33733809D01*
X14642857Y-33924285D01*
X14595238Y-34019523D01*
X14500000Y-34114761D01*
X14357142Y-34162380D01*
X14119047Y-34162380D01*
%TD*%
M02*
