%TF.GenerationSoftware,KiCad,Pcbnew,(5.1.10)-1*%
%TF.CreationDate,2021-08-08T16:05:11+01:00*%
%TF.ProjectId,bongopad,626f6e67-6f70-4616-942e-6b696361645f,1*%
%TF.SameCoordinates,PXb71b00PYb71b00*%
%TF.FileFunction,Profile,NP*%
%FSLAX46Y46*%
G04 Gerber Fmt 4.6, Leading zero omitted, Abs format (unit mm)*
G04 Created by KiCad (PCBNEW (5.1.10)-1) date 2021-08-08 16:05:11*
%MOMM*%
%LPD*%
G01*
G04 APERTURE LIST*
%TA.AperFunction,Profile*%
%ADD10C,0.050000*%
%TD*%
%TA.AperFunction,Profile*%
%ADD11C,0.010000*%
%TD*%
G04 APERTURE END LIST*
D10*
X100000000Y0D02*
X0Y0D01*
X100000000Y-100000000D02*
X100000000Y0D01*
X0Y-100000000D02*
X100000000Y-100000000D01*
X0Y0D02*
X0Y-100000000D01*
D11*
%TO.C,K1*%
X32535000Y-17365000D02*
X29135000Y-17365000D01*
X29135000Y-17365000D02*
X29135000Y-14365000D01*
X29135000Y-14365000D02*
X32535000Y-14365000D01*
X32535000Y-14365000D02*
X32535000Y-17365000D01*
%TO.C,K2*%
X51600000Y-17370000D02*
X48200000Y-17370000D01*
X48200000Y-17370000D02*
X48200000Y-14370000D01*
X48200000Y-14370000D02*
X51600000Y-14370000D01*
X51600000Y-14370000D02*
X51600000Y-17370000D01*
%TO.C,K6*%
X55050000Y-42750000D02*
X51650000Y-42750000D01*
X51650000Y-42750000D02*
X51650000Y-39750000D01*
X51650000Y-39750000D02*
X55050000Y-39750000D01*
X55050000Y-39750000D02*
X55050000Y-42750000D01*
%TO.C,K8*%
X89050000Y-42750000D02*
X85650000Y-42750000D01*
X85650000Y-42750000D02*
X85650000Y-39750000D01*
X85650000Y-39750000D02*
X89050000Y-39750000D01*
X89050000Y-39750000D02*
X89050000Y-42750000D01*
%TO.C,K10*%
X55050000Y-59750000D02*
X51650000Y-59750000D01*
X51650000Y-59750000D02*
X51650000Y-56750000D01*
X51650000Y-56750000D02*
X55050000Y-56750000D01*
X55050000Y-56750000D02*
X55050000Y-59750000D01*
%TO.C,K3*%
X72050000Y-25750000D02*
X68650000Y-25750000D01*
X68650000Y-25750000D02*
X68650000Y-22750000D01*
X68650000Y-22750000D02*
X72050000Y-22750000D01*
X72050000Y-22750000D02*
X72050000Y-25750000D01*
%TO.C,K4*%
X89050000Y-25750000D02*
X85650000Y-25750000D01*
X85650000Y-25750000D02*
X85650000Y-22750000D01*
X85650000Y-22750000D02*
X89050000Y-22750000D01*
X89050000Y-22750000D02*
X89050000Y-25750000D01*
%TO.C,K5*%
X38050000Y-42750000D02*
X34650000Y-42750000D01*
X34650000Y-42750000D02*
X34650000Y-39750000D01*
X34650000Y-39750000D02*
X38050000Y-39750000D01*
X38050000Y-39750000D02*
X38050000Y-42750000D01*
%TO.C,K7*%
X72050000Y-42750000D02*
X68650000Y-42750000D01*
X68650000Y-42750000D02*
X68650000Y-39750000D01*
X68650000Y-39750000D02*
X72050000Y-39750000D01*
X72050000Y-39750000D02*
X72050000Y-42750000D01*
%TO.C,K9*%
X38050000Y-59750000D02*
X34650000Y-59750000D01*
X34650000Y-59750000D02*
X34650000Y-56750000D01*
X34650000Y-56750000D02*
X38050000Y-56750000D01*
X38050000Y-56750000D02*
X38050000Y-59750000D01*
%TO.C,K13*%
X38050000Y-76750000D02*
X34650000Y-76750000D01*
X34650000Y-76750000D02*
X34650000Y-73750000D01*
X34650000Y-73750000D02*
X38050000Y-73750000D01*
X38050000Y-73750000D02*
X38050000Y-76750000D01*
%TO.C,K14*%
X55050000Y-76750000D02*
X51650000Y-76750000D01*
X51650000Y-76750000D02*
X51650000Y-73750000D01*
X51650000Y-73750000D02*
X55050000Y-73750000D01*
X55050000Y-73750000D02*
X55050000Y-76750000D01*
%TO.C,K15*%
X72050000Y-76750000D02*
X68650000Y-76750000D01*
X68650000Y-76750000D02*
X68650000Y-73750000D01*
X68650000Y-73750000D02*
X72050000Y-73750000D01*
X72050000Y-73750000D02*
X72050000Y-76750000D01*
%TO.C,K17*%
X38050000Y-93750000D02*
X34650000Y-93750000D01*
X34650000Y-93750000D02*
X34650000Y-90750000D01*
X34650000Y-90750000D02*
X38050000Y-90750000D01*
X38050000Y-90750000D02*
X38050000Y-93750000D01*
%TO.C,K18*%
X55050000Y-93750000D02*
X51650000Y-93750000D01*
X51650000Y-93750000D02*
X51650000Y-90750000D01*
X51650000Y-90750000D02*
X55050000Y-90750000D01*
X55050000Y-90750000D02*
X55050000Y-93750000D01*
%TO.C,K19*%
X72050000Y-93750000D02*
X68650000Y-93750000D01*
X68650000Y-93750000D02*
X68650000Y-90750000D01*
X68650000Y-90750000D02*
X72050000Y-90750000D01*
X72050000Y-90750000D02*
X72050000Y-93750000D01*
%TO.C,K20*%
X89050000Y-93750000D02*
X85650000Y-93750000D01*
X85650000Y-93750000D02*
X85650000Y-90750000D01*
X85650000Y-90750000D02*
X89050000Y-90750000D01*
X89050000Y-90750000D02*
X89050000Y-93750000D01*
%TO.C,K12*%
X89050000Y-59750000D02*
X85650000Y-59750000D01*
X85650000Y-59750000D02*
X85650000Y-56750000D01*
X85650000Y-56750000D02*
X89050000Y-56750000D01*
X89050000Y-56750000D02*
X89050000Y-59750000D01*
%TO.C,K11*%
X72050000Y-59750000D02*
X68650000Y-59750000D01*
X68650000Y-59750000D02*
X68650000Y-56750000D01*
X68650000Y-56750000D02*
X72050000Y-56750000D01*
X72050000Y-56750000D02*
X72050000Y-59750000D01*
%TO.C,K16*%
X89050000Y-76750000D02*
X85650000Y-76750000D01*
X85650000Y-76750000D02*
X85650000Y-73750000D01*
X85650000Y-73750000D02*
X89050000Y-73750000D01*
X89050000Y-73750000D02*
X89050000Y-76750000D01*
%TD*%
M02*
