%TF.GenerationSoftware,KiCad,Pcbnew,(5.1.10)-1*%
%TF.CreationDate,2021-08-08T16:05:11+01:00*%
%TF.ProjectId,bongopad,626f6e67-6f70-4616-942e-6b696361645f,1*%
%TF.SameCoordinates,PXb71b00PYb71b00*%
%TF.FileFunction,Copper,L1,Top*%
%TF.FilePolarity,Positive*%
%FSLAX46Y46*%
G04 Gerber Fmt 4.6, Leading zero omitted, Abs format (unit mm)*
G04 Created by KiCad (PCBNEW (5.1.10)-1) date 2021-08-08 16:05:11*
%MOMM*%
%LPD*%
G01*
G04 APERTURE LIST*
%TA.AperFunction,ComponentPad*%
%ADD10C,1.879600*%
%TD*%
%TA.AperFunction,ComponentPad*%
%ADD11O,1.524000X1.524000*%
%TD*%
%TA.AperFunction,ComponentPad*%
%ADD12R,1.524000X1.524000*%
%TD*%
%TA.AperFunction,ComponentPad*%
%ADD13C,2.000000*%
%TD*%
%TA.AperFunction,ComponentPad*%
%ADD14R,3.200000X2.000000*%
%TD*%
%TA.AperFunction,ComponentPad*%
%ADD15R,2.000000X2.000000*%
%TD*%
G04 APERTURE END LIST*
D10*
%TO.P,MCU1,24*%
%TO.N,Net-(MCU1-Pad24)*%
X17370000Y-3800000D03*
%TO.P,MCU1,23*%
%TO.N,Net-(J2-Pad2)*%
X17370000Y-6340000D03*
%TO.P,MCU1,22*%
%TO.N,Net-(J2-Pad1)*%
X17370000Y-8880000D03*
%TO.P,MCU1,21*%
%TO.N,Net-(MCU1-Pad21)*%
X17370000Y-11420000D03*
%TO.P,MCU1,20*%
%TO.N,Net-(MCU1-Pad20)*%
X17370000Y-13960000D03*
%TO.P,MCU1,19*%
%TO.N,Net-(MCU1-Pad19)*%
X17370000Y-16500000D03*
%TO.P,MCU1,18*%
%TO.N,Net-(MCU1-Pad18)*%
X17370000Y-19040000D03*
%TO.P,MCU1,17*%
%TO.N,Net-(MCU1-Pad17)*%
X17370000Y-21580000D03*
%TO.P,MCU1,16*%
%TO.N,Net-(MCU1-Pad16)*%
X17370000Y-24120000D03*
%TO.P,MCU1,15*%
%TO.N,Net-(MCU1-Pad15)*%
X17370000Y-26660000D03*
%TO.P,MCU1,14*%
%TO.N,Net-(MCU1-Pad14)*%
X17370000Y-29200000D03*
%TO.P,MCU1,13*%
%TO.N,Net-(MCU1-Pad13)*%
X17370000Y-31740000D03*
%TO.P,MCU1,12*%
%TO.N,Net-(MCU1-Pad12)*%
X2130000Y-31740000D03*
%TO.P,MCU1,11*%
%TO.N,Net-(MCU1-Pad11)*%
X2130000Y-29200000D03*
%TO.P,MCU1,10*%
%TO.N,Net-(MCU1-Pad10)*%
X2130000Y-26660000D03*
%TO.P,MCU1,9*%
%TO.N,Net-(MCU1-Pad9)*%
X2130000Y-24120000D03*
%TO.P,MCU1,8*%
%TO.N,Net-(MCU1-Pad8)*%
X2130000Y-21580000D03*
%TO.P,MCU1,7*%
%TO.N,Net-(MCU1-Pad7)*%
X2130000Y-19040000D03*
%TO.P,MCU1,6*%
%TO.N,Net-(MCU1-Pad6)*%
X2130000Y-16500000D03*
%TO.P,MCU1,5*%
%TO.N,Net-(MCU1-Pad5)*%
X2130000Y-13960000D03*
%TO.P,MCU1,4*%
%TO.N,Net-(MCU1-Pad4)*%
X2130000Y-11420000D03*
%TO.P,MCU1,3*%
%TO.N,Net-(MCU1-Pad3)*%
X2130000Y-8880000D03*
%TO.P,MCU1,2*%
%TO.N,Net-(MCU1-Pad2)*%
X2130000Y-6340000D03*
%TO.P,MCU1,1*%
%TO.N,Net-(MCU1-Pad1)*%
X2130000Y-3800000D03*
%TD*%
D11*
%TO.P,J2,2*%
%TO.N,Net-(J2-Pad2)*%
X4000000Y-37770000D03*
D12*
%TO.P,J2,1*%
%TO.N,Net-(J2-Pad1)*%
X4000000Y-35230000D03*
%TD*%
D13*
%TO.P,ROT3,S1*%
%TO.N,Net-(ROT3-PadS1)*%
X17250000Y-81750000D03*
%TO.P,ROT3,S2*%
%TO.N,Net-(ROT3-PadS2)*%
X17250000Y-76750000D03*
D14*
%TO.P,ROT3,MP*%
%TO.N,N/C*%
X10250000Y-84850000D03*
X10250000Y-73650000D03*
D13*
%TO.P,ROT3,B*%
%TO.N,Net-(ROT3-PadB)*%
X2750000Y-81750000D03*
%TO.P,ROT3,C*%
%TO.N,Net-(ROT3-PadC)*%
X2750000Y-79250000D03*
D15*
%TO.P,ROT3,A*%
%TO.N,Net-(ROT3-PadA)*%
X2750000Y-76750000D03*
%TD*%
D13*
%TO.P,ROT2,S1*%
%TO.N,Net-(ROT2-PadS1)*%
X17250000Y-66000000D03*
%TO.P,ROT2,S2*%
%TO.N,Net-(ROT2-PadS2)*%
X17250000Y-61000000D03*
D14*
%TO.P,ROT2,MP*%
%TO.N,N/C*%
X10250000Y-69100000D03*
X10250000Y-57900000D03*
D13*
%TO.P,ROT2,B*%
%TO.N,Net-(ROT2-PadB)*%
X2750000Y-66000000D03*
%TO.P,ROT2,C*%
%TO.N,Net-(ROT2-PadC)*%
X2750000Y-63500000D03*
D15*
%TO.P,ROT2,A*%
%TO.N,Net-(ROT2-PadA)*%
X2750000Y-61000000D03*
%TD*%
D13*
%TO.P,ROT1,S1*%
%TO.N,Net-(ROT1-PadS1)*%
X17250000Y-49750000D03*
%TO.P,ROT1,S2*%
%TO.N,Net-(ROT1-PadS2)*%
X17250000Y-44750000D03*
D14*
%TO.P,ROT1,MP*%
%TO.N,N/C*%
X10250000Y-52850000D03*
X10250000Y-41650000D03*
D13*
%TO.P,ROT1,B*%
%TO.N,Net-(ROT1-PadB)*%
X2750000Y-49750000D03*
%TO.P,ROT1,C*%
%TO.N,Net-(ROT1-PadC)*%
X2750000Y-47250000D03*
D15*
%TO.P,ROT1,A*%
%TO.N,Net-(ROT1-PadA)*%
X2750000Y-44750000D03*
%TD*%
D11*
%TO.P,J1,4*%
%TO.N,Net-(J1-Pad4)*%
X16810000Y-36250000D03*
D12*
%TO.P,J1,1*%
%TO.N,Net-(J1-Pad1)*%
X9190000Y-36250000D03*
D11*
%TO.P,J1,2*%
%TO.N,Net-(J1-Pad2)*%
X11730000Y-36250000D03*
%TO.P,J1,3*%
%TO.N,Net-(J1-Pad3)*%
X14270000Y-36250000D03*
%TD*%
M02*
