M48
; DRILL file {KiCad (5.1.10)-1} date 08/08/21 16:05:15
; FORMAT={-:-/ absolute / inch / decimal}
; #@! TF.CreationDate,2021-08-08T16:05:15+01:00
; #@! TF.GenerationSoftware,Kicad,Pcbnew,(5.1.10)-1
; #@! TF.FileFunction,Plated,1,2,PTH
FMAT,2
INCH
T1C0.0300
T2C0.0394
T3C0.0400
T4C0.0591
%
G90
G05
T1
X0.1575Y-1.387
X0.1575Y-1.487
X0.3618Y-1.4272
X0.4618Y-1.4272
X0.5618Y-1.4272
X0.6618Y-1.4272
T2
X0.1083Y-1.7618
X0.1083Y-1.8602
X0.1083Y-1.9587
X0.1083Y-2.4016
X0.1083Y-2.5
X0.1083Y-2.5984
X0.1083Y-3.0217
X0.1083Y-3.1201
X0.1083Y-3.2185
X0.6791Y-1.7618
X0.6791Y-1.9587
X0.6791Y-2.4016
X0.6791Y-2.5984
X0.6791Y-3.0217
X0.6791Y-3.2185
T3
X0.0839Y-0.1496
X0.0839Y-0.2496
X0.0839Y-0.3496
X0.0839Y-0.4496
X0.0839Y-0.5496
X0.0839Y-0.6496
X0.0839Y-0.7496
X0.0839Y-0.8496
X0.0839Y-0.9496
X0.0839Y-1.0496
X0.0839Y-1.1496
X0.0839Y-1.2496
X0.6839Y-0.1496
X0.6839Y-0.2496
X0.6839Y-0.3496
X0.6839Y-0.4496
X0.6839Y-0.5496
X0.6839Y-0.6496
X0.6839Y-0.7496
X0.6839Y-0.8496
X0.6839Y-0.9496
X0.6839Y-1.0496
X0.6839Y-1.1496
X0.6839Y-1.2496
T4
G00X0.378Y-1.6398
M15
G01X0.4291Y-1.6398
M16
G05
G00X0.378Y-2.0807
M15
G01X0.4291Y-2.0807
M16
G05
G00X0.378Y-2.2795
M15
G01X0.4291Y-2.2795
M16
G05
G00X0.378Y-2.7205
M15
G01X0.4291Y-2.7205
M16
G05
G00X0.378Y-2.8996
M15
G01X0.4291Y-2.8996
M16
G05
G00X0.378Y-3.3406
M15
G01X0.4291Y-3.3406
M16
G05
T0
M30
